<svg xmlns="http://www.w3.org/2000/svg" xmlns:xlink="http://www.w3.org/1999/xlink" viewBox="0 0 1621 1576"><defs><style>.cls-1{mask:url(#mask);filter:url(#luminosity-noclip-2);}.cls-2{mix-blend-mode:multiply;fill:url(#linear-gradient);}.cls-100,.cls-109,.cls-3,.cls-86{fill:#fff;}.cls-4{fill:url(#linear-gradient-2);}.cls-5{fill:#91b3fa;}.cls-6{fill:#dce5fe;}.cls-7{fill:#bdd0fb;}.cls-8{fill:url(#linear-gradient-3);}.cls-9{fill:url(#linear-gradient-4);}.cls-10{fill:url(#linear-gradient-5);}.cls-11{opacity:0.87;}.cls-12{fill:url(#linear-gradient-6);}.cls-13{fill:url(#linear-gradient-7);}.cls-14{fill:#7d97f4;}.cls-15{fill:url(#linear-gradient-8);}.cls-16{fill:url(#linear-gradient-9);}.cls-17{mask:url(#mask-2);}.cls-18,.cls-19,.cls-20,.cls-21,.cls-22,.cls-23,.cls-24,.cls-25,.cls-26{opacity:0.78;}.cls-18{fill:url(#linear-gradient-10);}.cls-19{fill:url(#linear-gradient-11);}.cls-20{fill:url(#linear-gradient-12);}.cls-21{fill:url(#linear-gradient-13);}.cls-22{fill:url(#linear-gradient-14);}.cls-23{fill:url(#linear-gradient-15);}.cls-24{fill:url(#linear-gradient-16);}.cls-25{fill:url(#linear-gradient-17);}.cls-26{fill:url(#linear-gradient-18);}.cls-27{fill:url(#linear-gradient-19);}.cls-28{fill:url(#linear-gradient-20);}.cls-29{font-size:134.71px;fill:#1b1464;font-family:Arial-Black, Arial Black;font-weight:800;}.cls-30{letter-spacing:-0.05em;}.cls-31{fill:url(#linear-gradient-21);}.cls-32{fill:url(#linear-gradient-22);}.cls-33{fill:url(#linear-gradient-23);}.cls-34{fill:url(#linear-gradient-24);}.cls-35{fill:url(#linear-gradient-25);}.cls-36{fill:url(#linear-gradient-26);}.cls-37{fill:url(#linear-gradient-27);}.cls-38{fill:url(#linear-gradient-28);}.cls-39{fill:url(#linear-gradient-29);}.cls-40{fill:url(#linear-gradient-30);}.cls-41{fill:url(#linear-gradient-31);}.cls-42{fill:url(#linear-gradient-32);}.cls-43{fill:url(#linear-gradient-33);}.cls-44{fill:url(#linear-gradient-34);}.cls-45{fill:url(#linear-gradient-35);}.cls-46{fill:url(#linear-gradient-36);}.cls-47{fill:url(#linear-gradient-37);}.cls-48{fill:url(#linear-gradient-38);}.cls-49{fill:url(#linear-gradient-39);}.cls-50{fill:url(#linear-gradient-40);}.cls-51{fill:url(#linear-gradient-41);}.cls-52{fill:url(#linear-gradient-42);}.cls-53{fill:url(#linear-gradient-43);}.cls-54{fill:url(#linear-gradient-44);}.cls-55{fill:url(#linear-gradient-45);}.cls-56{fill:url(#linear-gradient-46);}.cls-57{fill:url(#linear-gradient-47);}.cls-58{fill:url(#linear-gradient-48);}.cls-59{fill:url(#linear-gradient-49);}.cls-60{fill:url(#linear-gradient-50);}.cls-61{fill:url(#linear-gradient-51);}.cls-62{fill:url(#linear-gradient-52);}.cls-63{fill:url(#linear-gradient-53);}.cls-64{fill:url(#linear-gradient-54);}.cls-65{fill:url(#linear-gradient-55);}.cls-66{fill:url(#linear-gradient-56);}.cls-67{fill:url(#linear-gradient-57);}.cls-68{fill:url(#linear-gradient-58);}.cls-69{fill:url(#linear-gradient-59);}.cls-70{fill:url(#linear-gradient-60);}.cls-71{fill:url(#linear-gradient-61);}.cls-72{fill:url(#linear-gradient-62);}.cls-73{fill:url(#linear-gradient-63);}.cls-74{fill:url(#linear-gradient-64);}.cls-75{fill:url(#linear-gradient-65);}.cls-76{fill:url(#linear-gradient-66);}.cls-77{fill:url(#linear-gradient-67);}.cls-78{fill:url(#linear-gradient-68);}.cls-79{fill:url(#linear-gradient-69);}.cls-80{fill:url(#linear-gradient-70);}.cls-81{fill:url(#linear-gradient-71);}.cls-82{fill:url(#linear-gradient-72);}.cls-83{fill:url(#linear-gradient-73);}.cls-84{fill:url(#linear-gradient-74);}.cls-85,.cls-86{opacity:0.79;}.cls-87{fill:url(#linear-gradient-75);}.cls-88{fill:url(#linear-gradient-76);}.cls-89{fill:url(#linear-gradient-77);}.cls-90{fill:url(#linear-gradient-78);}.cls-91{fill:url(#linear-gradient-79);}.cls-92{fill:url(#linear-gradient-80);}.cls-93{fill:url(#linear-gradient-81);}.cls-94{fill:url(#linear-gradient-82);}.cls-95{fill:url(#linear-gradient-83);}.cls-96{fill:url(#linear-gradient-84);}.cls-97{fill:url(#linear-gradient-85);}.cls-98{fill:url(#linear-gradient-86);}.cls-99{fill:url(#linear-gradient-87);}.cls-100{opacity:0.5;}.cls-101{fill:url(#linear-gradient-88);}.cls-102{fill:url(#linear-gradient-89);}.cls-103{fill:url(#linear-gradient-90);}.cls-104{fill:url(#linear-gradient-91);}.cls-105{fill:url(#linear-gradient-92);}.cls-106{fill:url(#linear-gradient-93);}.cls-107{fill:url(#linear-gradient-94);}.cls-108{fill:url(#linear-gradient-95);}.cls-109{opacity:0.7;}.cls-110{fill:url(#linear-gradient-96);}.cls-111{fill:url(#linear-gradient-97);}.cls-112{fill:url(#linear-gradient-98);}.cls-113{fill:url(#linear-gradient-99);}.cls-114{fill:url(#linear-gradient-100);}.cls-115{fill:url(#linear-gradient-101);}.cls-116{fill:url(#linear-gradient-102);}.cls-117{fill:url(#linear-gradient-103);}.cls-118{fill:url(#linear-gradient-104);}.cls-119{fill:url(#linear-gradient-105);}.cls-120{filter:url(#luminosity-noclip);}</style><filter id="luminosity-noclip" x="402.42" y="-9017" width="554.02" height="32766" filterUnits="userSpaceOnUse" color-interpolation-filters="sRGB"><feFlood flood-color="#fff" result="bg"/><feBlend in="SourceGraphic" in2="bg"/></filter><mask id="mask" x="402.42" y="-9017" width="554.02" height="32766" maskUnits="userSpaceOnUse"><g class="cls-120"/></mask><linearGradient id="linear-gradient" x1="887.7" y1="767.43" x2="178.37" y2="1675.16" gradientUnits="userSpaceOnUse"><stop offset="0" stop-color="#fff"/><stop offset="1"/></linearGradient><linearGradient id="linear-gradient-2" x1="522.88" y1="43.97" x2="1090.12" y2="1651.73" gradientUnits="userSpaceOnUse"><stop offset="0" stop-color="#dae3fe"/><stop offset="1" stop-color="#e9effd"/></linearGradient><linearGradient id="linear-gradient-3" x1="501.26" y1="413.16" x2="416.72" y2="651.28" gradientTransform="translate(-501.07 430.78) rotate(-32.56)" gradientUnits="userSpaceOnUse"><stop offset="0" stop-color="#e1473d"/><stop offset="1" stop-color="#e9605a"/></linearGradient><linearGradient id="linear-gradient-4" x1="661.04" y1="654.73" x2="-58.09" y2="1603.24" gradientTransform="matrix(0.83, -0.53, 0.5, 0.78, -477.31, 473.43)" gradientUnits="userSpaceOnUse"><stop offset="0" stop-color="#fe7062"/><stop offset="1" stop-color="#ff928e"/></linearGradient><linearGradient id="linear-gradient-5" x1="478.58" y1="879.43" x2="305.89" y2="1107.21" gradientTransform="matrix(0.84, -0.54, 0.4, 0.63, -556.35, 344.45)" xlink:href="#linear-gradient-4"/><linearGradient id="linear-gradient-6" x1="125.25" y1="760.42" x2="233.31" y2="760.42" gradientTransform="translate(-157.74 99.24) rotate(-14.47)" xlink:href="#linear-gradient-3"/><linearGradient id="linear-gradient-7" x1="1524.78" y1="827.76" x2="1237.69" y2="1056.53" gradientUnits="userSpaceOnUse"><stop offset="0" stop-color="#4042e2"/><stop offset="1" stop-color="#4f52ff"/></linearGradient><linearGradient id="linear-gradient-8" x1="1949.18" y1="523.46" x2="747.85" y2="1375.25" xlink:href="#linear-gradient-7"/><linearGradient id="linear-gradient-9" x1="389" y1="997.5" x2="1033.47" y2="997.5" xlink:href="#linear-gradient-7"/><filter id="luminosity-noclip-2" x="402.42" y="626.16" width="554.02" height="749" filterUnits="userSpaceOnUse" color-interpolation-filters="sRGB"><feFlood flood-color="#fff" result="bg"/><feBlend in="SourceGraphic" in2="bg"/></filter><mask id="mask-2" x="402.42" y="626.16" width="554.02" height="749" maskUnits="userSpaceOnUse"><g class="cls-1"><path class="cls-2" d="M474.13,643.9l460.65-17.74c-19,140.66-11,427.1-3.73,709.4a44.36,44.36,0,0,0,25.38,39h0s-307.25,3.54-439.27-5.83a66.52,66.52,0,0,1-61.06-56.54c-18.13-121-61.49-433.39-52.46-598.81A73.43,73.43,0,0,1,474.13,643.9Z"/></g></mask><linearGradient id="linear-gradient-10" x1="468.96" y1="867.52" x2="542.6" y2="867.52" xlink:href="#linear-gradient-2"/><linearGradient id="linear-gradient-11" x1="564.22" y1="835.51" x2="876.28" y2="835.51" xlink:href="#linear-gradient-2"/><linearGradient id="linear-gradient-12" x1="569.94" y1="885.61" x2="779.4" y2="885.61" xlink:href="#linear-gradient-2"/><linearGradient id="linear-gradient-13" x1="468.96" y1="1010.72" x2="542.6" y2="1010.72" xlink:href="#linear-gradient-2"/><linearGradient id="linear-gradient-14" x1="564.22" y1="978.72" x2="876.28" y2="978.72" xlink:href="#linear-gradient-2"/><linearGradient id="linear-gradient-15" x1="569.94" y1="1028.81" x2="779.4" y2="1028.81" xlink:href="#linear-gradient-2"/><linearGradient id="linear-gradient-16" x1="468.96" y1="1153.93" x2="542.6" y2="1153.93" xlink:href="#linear-gradient-2"/><linearGradient id="linear-gradient-17" x1="564.22" y1="1121.92" x2="876.28" y2="1121.92" xlink:href="#linear-gradient-2"/><linearGradient id="linear-gradient-18" x1="569.94" y1="1172.02" x2="779.4" y2="1172.02" xlink:href="#linear-gradient-2"/><linearGradient id="linear-gradient-19" x1="1045.55" y1="1145.66" x2="1050.86" y2="1145.66" xlink:href="#linear-gradient-2"/><linearGradient id="linear-gradient-20" x1="-15.91" y1="2401.71" x2="-420.98" y2="3111.18" gradientUnits="userSpaceOnUse"><stop offset="0" stop-color="#09005d"/><stop offset="1" stop-color="#1a0f91"/></linearGradient><linearGradient id="linear-gradient-21" x1="-190.36" y1="1478.57" x2="-136.8" y2="1478.57" gradientTransform="matrix(-1, 0, 0, 1, 764.06, 0)" xlink:href="#linear-gradient-7"/><linearGradient id="linear-gradient-22" x1="-190.36" y1="1468.07" x2="-138.31" y2="1468.07" gradientTransform="matrix(-1, 0, 0, 1, 764.06, 0)" xlink:href="#linear-gradient-20"/><linearGradient id="linear-gradient-23" x1="-185.41" y1="1453.42" x2="-170.33" y2="1453.42" gradientTransform="matrix(-1, 0, 0, 1, 764.06, 0)" gradientUnits="userSpaceOnUse"><stop offset="0" stop-color="#ff928e"/><stop offset="1" stop-color="#feb3b1"/></linearGradient><linearGradient id="linear-gradient-24" x1="-297.15" y1="1477.42" x2="-276.61" y2="1477.42" gradientTransform="matrix(-1, 0, 0, 1, 764.06, 0)" xlink:href="#linear-gradient-7"/><linearGradient id="linear-gradient-25" x1="-296.99" y1="1461.61" x2="-266.86" y2="1461.61" gradientTransform="matrix(-1, 0, 0, 1, 764.06, 0)" xlink:href="#linear-gradient-20"/><linearGradient id="linear-gradient-26" x1="-281.33" y1="1440.84" x2="-263.3" y2="1440.84" xlink:href="#linear-gradient-23"/><linearGradient id="linear-gradient-27" x1="-141.91" y1="1274.71" x2="-341.5" y2="1565.58" gradientTransform="matrix(-1, 0, 0, 1, 764.06, 0)" xlink:href="#linear-gradient-20"/><linearGradient id="linear-gradient-28" x1="-54.58" y1="1064.45" x2="-467.92" y2="1423.96" gradientTransform="matrix(-1, 0, 0, 1, 764.06, 0)" xlink:href="#linear-gradient-4"/><linearGradient id="linear-gradient-29" x1="924.23" y1="1277.41" x2="948.36" y2="1277.41" xlink:href="#linear-gradient-7"/><linearGradient id="linear-gradient-30" x1="-198.72" y1="1178.02" x2="-262.91" y2="1234.86" gradientTransform="matrix(-1, 0, 0, 1, 764.06, 0)" gradientUnits="userSpaceOnUse"><stop offset="0" stop-color="#f9b776"/><stop offset="1" stop-color="#f47960"/></linearGradient><linearGradient id="linear-gradient-31" x1="-89.04" y1="1026.36" x2="-500.52" y2="1384.24" gradientTransform="matrix(-1, 0, 0, 1, 764.06, 0)" xlink:href="#linear-gradient-4"/><linearGradient id="linear-gradient-32" x1="149.31" y1="1073.59" x2="-262.19" y2="1431.49" gradientTransform="matrix(-0.97, 0.24, 0.24, 0.97, 668.95, 40.19)" xlink:href="#linear-gradient-4"/><linearGradient id="linear-gradient-33" x1="839.21" y1="1146.15" x2="833.21" y2="1257.65" gradientTransform="matrix(1, 0, 0, 1, 0, 0)" xlink:href="#linear-gradient-23"/><linearGradient id="linear-gradient-34" x1="-127.53" y1="1048.31" x2="-128.09" y2="1142.71" xlink:href="#linear-gradient-23"/><linearGradient id="linear-gradient-35" x1="902.3" y1="1018.41" x2="855.8" y2="1059.91" gradientTransform="matrix(1, 0, 0, 1, 0, 0)" xlink:href="#linear-gradient-23"/><linearGradient id="linear-gradient-36" x1="-514.87" y1="2708.66" x2="-459.37" y2="2708.66" gradientTransform="matrix(-0.99, -0.14, -0.14, 0.99, 771.19, -1701.75)" xlink:href="#linear-gradient-20"/><linearGradient id="linear-gradient-37" x1="-547.44" y1="2742.51" x2="-510.17" y2="2704.28" gradientTransform="matrix(-0.99, -0.14, -0.14, 0.99, 771.19, -1701.75)" xlink:href="#linear-gradient-23"/><linearGradient id="linear-gradient-38" x1="483.21" y1="908.88" x2="-108.51" y2="1340.53" gradientTransform="matrix(-0.79, 0.61, 0.61, 0.79, 489.33, 201.17)" xlink:href="#linear-gradient-20"/><linearGradient id="linear-gradient-39" x1="503.95" y1="1004.93" x2="581.89" y2="937.19" gradientTransform="matrix(-0.79, 0.61, 0.61, 0.79, 489.33, 201.17)" xlink:href="#linear-gradient-20"/><linearGradient id="linear-gradient-40" x1="572.09" y1="905.5" x2="283.51" y2="1202.07" gradientTransform="matrix(-0.79, 0.61, 0.61, 0.79, 489.33, 201.17)" xlink:href="#linear-gradient-4"/><linearGradient id="linear-gradient-41" x1="-173.38" y1="1206.65" x2="-237.56" y2="1263.48" xlink:href="#linear-gradient-23"/><linearGradient id="linear-gradient-42" x1="-650.68" y1="72.69" x2="-586.68" y2="194.69" xlink:href="#linear-gradient-23"/><linearGradient id="linear-gradient-43" x1="1954.2" y1="1431.48" x2="1773.31" y2="1628.23" gradientTransform="matrix(-1, 0, 0, 1, 3221.34, 0)" xlink:href="#linear-gradient-7"/><linearGradient id="linear-gradient-44" x1="1895.48" y1="1446.09" x2="1911.55" y2="1446.09" gradientTransform="matrix(-1, 0, 0, 1, 3221.34, 0)" xlink:href="#linear-gradient-23"/><linearGradient id="linear-gradient-45" x1="1857.38" y1="1323.24" x2="1910.51" y2="1323.24" gradientTransform="matrix(-1, 0, 0, 1, 3221.34, 0)" xlink:href="#linear-gradient-20"/><linearGradient id="linear-gradient-46" x1="1913.62" y1="1394.17" x2="1732.73" y2="1590.93" gradientTransform="matrix(-1, 0, 0, 1, 3221.34, 0)" xlink:href="#linear-gradient-7"/><linearGradient id="linear-gradient-47" x1="1837.58" y1="1445.27" x2="1851.45" y2="1445.27" gradientTransform="matrix(-1, 0, 0, 1, 3221.34, 0)" xlink:href="#linear-gradient-23"/><linearGradient id="linear-gradient-48" x1="1822.62" y1="1321.5" x2="1898.05" y2="1321.5" gradientTransform="matrix(-1, 0, 0, 1, 3221.34, 0)" xlink:href="#linear-gradient-20"/><linearGradient id="linear-gradient-49" x1="1939.9" y1="882.08" x2="1909.91" y2="1036.57" gradientTransform="matrix(-1, 0, 0, 1, 3221.34, 0)" xlink:href="#linear-gradient-20"/><linearGradient id="linear-gradient-50" x1="2078.72" y1="921.09" x2="1939.39" y2="1106.42" gradientTransform="matrix(-1, 0, 0, 1, 3221.34, 0)" xlink:href="#linear-gradient-23"/><linearGradient id="linear-gradient-51" x1="1681.21" y1="5980.59" x2="1541.87" y2="6165.92" gradientTransform="translate(-4295.39)" xlink:href="#linear-gradient-23"/><linearGradient id="linear-gradient-52" x1="2078.38" y1="952.52" x2="2006.38" y2="987.19" gradientTransform="matrix(-1, 0, 0, 1, 3221.34, 0)" xlink:href="#linear-gradient-23"/><linearGradient id="linear-gradient-53" x1="1860.7" y1="866.7" x2="1830.7" y2="1021.19" gradientTransform="matrix(-1, 0, 0, 1, 3221.34, 0)" xlink:href="#linear-gradient-20"/><linearGradient id="linear-gradient-54" x1="1794.4" y1="1180.23" x2="1864.4" y2="1094.89" gradientTransform="matrix(-1, 0, 0, 1, 3221.34, 0)" xlink:href="#linear-gradient-23"/><linearGradient id="linear-gradient-55" x1="1874.52" y1="1123.08" x2="1985.81" y2="1123.08" gradientTransform="matrix(-1, 0, 0, 1, 3221.34, 0)" xlink:href="#linear-gradient-2"/><linearGradient id="linear-gradient-56" x1="1839.52" y1="1151.57" x2="1902.19" y2="1125.57" gradientTransform="matrix(-1, 0, 0, 1, 3221.34, 0)" xlink:href="#linear-gradient-23"/><linearGradient id="linear-gradient-57" x1="1904.79" y1="983.41" x2="1856.79" y2="1100.75" gradientTransform="matrix(-1, 0, 0, 1, 3221.34, 0)" xlink:href="#linear-gradient-23"/><linearGradient id="linear-gradient-58" x1="-3219.63" y1="-1396.12" x2="-3272.96" y2="-1348.12" gradientTransform="matrix(-0.75, -0.67, -0.67, 0.75, -2226.37, -2045)" xlink:href="#linear-gradient-23"/><linearGradient id="linear-gradient-59" x1="-4676" y1="-159.94" x2="-4663.16" y2="-86.72" gradientTransform="matrix(-0.75, -0.67, -0.67, 0.75, -2226.37, -2045)" xlink:href="#linear-gradient-20"/><linearGradient id="linear-gradient-60" x1="-3228.72" y1="-1406.22" x2="-3282.05" y2="-1358.22" gradientTransform="matrix(-0.75, -0.67, -0.67, 0.75, -2226.37, -2045)" xlink:href="#linear-gradient-23"/><linearGradient id="linear-gradient-61" x1="763.61" y1="230.09" x2="730.61" y2="497.09" gradientTransform="translate(-4.4 -3.02)" xlink:href="#linear-gradient-3"/><linearGradient id="linear-gradient-62" x1="921.93" y1="46.52" x2="756.93" y2="370.52" gradientTransform="translate(-1.61 -2.82)" xlink:href="#linear-gradient-4"/><linearGradient id="linear-gradient-63" x1="1088.34" y1="147.5" x2="613.34" y2="294.43" gradientTransform="translate(16.22 -23.7)" xlink:href="#linear-gradient-3"/><linearGradient id="linear-gradient-64" x1="1090.7" y1="155.15" x2="615.71" y2="302.08" gradientTransform="translate(15.92 -19.68)" xlink:href="#linear-gradient-3"/><linearGradient id="linear-gradient-65" x1="1092.79" y1="161.91" x2="617.8" y2="308.83" gradientTransform="translate(15.65 -16.12)" xlink:href="#linear-gradient-3"/><linearGradient id="linear-gradient-66" x1="1095.16" y1="169.55" x2="620.16" y2="316.48" gradientTransform="translate(15.35 -12.1)" xlink:href="#linear-gradient-3"/><linearGradient id="linear-gradient-67" x1="1097.25" y1="176.31" x2="622.25" y2="323.23" gradientTransform="translate(15.09 -8.54)" xlink:href="#linear-gradient-3"/><linearGradient id="linear-gradient-68" x1="1099.61" y1="183.95" x2="624.62" y2="330.88" gradientTransform="translate(14.78 -4.52)" xlink:href="#linear-gradient-3"/><linearGradient id="linear-gradient-69" x1="1101.7" y1="190.71" x2="626.71" y2="337.63" gradientTransform="translate(14.52 -0.96)" xlink:href="#linear-gradient-3"/><linearGradient id="linear-gradient-70" x1="1104.07" y1="198.35" x2="629.07" y2="345.28" gradientTransform="translate(14.22 3.06)" xlink:href="#linear-gradient-3"/><linearGradient id="linear-gradient-71" x1="1106.16" y1="205.11" x2="631.16" y2="352.03" gradientTransform="translate(13.95 6.62)" xlink:href="#linear-gradient-3"/><linearGradient id="linear-gradient-72" x1="1108.52" y1="212.75" x2="633.53" y2="359.68" gradientTransform="translate(13.65 10.65)" xlink:href="#linear-gradient-3"/><linearGradient id="linear-gradient-73" x1="1110.61" y1="219.51" x2="635.62" y2="366.43" gradientTransform="translate(13.39 14.2)" xlink:href="#linear-gradient-3"/><linearGradient id="linear-gradient-74" x1="1112.98" y1="227.15" x2="637.98" y2="374.08" gradientTransform="translate(13.09 18.23)" xlink:href="#linear-gradient-3"/><linearGradient id="linear-gradient-75" x1="677.77" y1="429.44" x2="714.11" y2="429.44" gradientTransform="translate(-4 -9.58)" xlink:href="#linear-gradient-3"/><linearGradient id="linear-gradient-76" x1="587.17" y1="285.14" x2="615.44" y2="285.14" gradientTransform="translate(67.55 -108.24) rotate(8.55)" xlink:href="#linear-gradient-3"/><linearGradient id="linear-gradient-77" x1="617.19" y1="285.14" x2="645.47" y2="285.14" gradientTransform="translate(67.55 -108.24) rotate(8.55)" xlink:href="#linear-gradient-3"/><linearGradient id="linear-gradient-78" x1="642.15" y1="285.14" x2="670.43" y2="285.14" gradientTransform="translate(67.55 -108.24) rotate(8.55)" xlink:href="#linear-gradient-3"/><linearGradient id="linear-gradient-79" x1="667.86" y1="285.14" x2="696.13" y2="285.14" gradientTransform="translate(67.55 -108.24) rotate(8.55)" xlink:href="#linear-gradient-3"/><linearGradient id="linear-gradient-80" x1="691.62" y1="285.14" x2="719.9" y2="285.14" gradientTransform="translate(67.55 -108.24) rotate(8.55)" xlink:href="#linear-gradient-3"/><linearGradient id="linear-gradient-81" x1="717.33" y1="285.14" x2="745.61" y2="285.14" gradientTransform="translate(67.55 -108.24) rotate(8.55)" xlink:href="#linear-gradient-3"/><linearGradient id="linear-gradient-82" x1="742.29" y1="285.14" x2="770.57" y2="285.14" gradientTransform="translate(67.55 -108.24) rotate(8.55)" xlink:href="#linear-gradient-3"/><linearGradient id="linear-gradient-83" x1="770.16" y1="285.14" x2="798.43" y2="285.14" gradientTransform="translate(67.55 -108.24) rotate(8.55)" xlink:href="#linear-gradient-3"/><linearGradient id="linear-gradient-84" x1="794.19" y1="284.91" x2="822.46" y2="284.91" gradientTransform="translate(67.55 -108.24) rotate(8.55)" xlink:href="#linear-gradient-3"/><linearGradient id="linear-gradient-85" x1="819.14" y1="284.91" x2="847.42" y2="284.91" gradientTransform="translate(67.55 -108.24) rotate(8.55)" xlink:href="#linear-gradient-3"/><linearGradient id="linear-gradient-86" x1="868.57" y1="285.49" x2="896.84" y2="285.49" gradientTransform="translate(67.55 -108.24) rotate(8.55)" xlink:href="#linear-gradient-3"/><linearGradient id="linear-gradient-87" x1="847.01" y1="284.91" x2="875.29" y2="284.91" gradientTransform="translate(67.55 -108.24) rotate(8.55)" xlink:href="#linear-gradient-3"/><linearGradient id="linear-gradient-88" x1="2194.23" y1="4220.59" x2="2159.49" y2="4667.57" gradientTransform="matrix(1, 0.08, -0.08, 1, -801.03, -3778.77)" gradientUnits="userSpaceOnUse"><stop offset="0" stop-color="#50e7b7"/><stop offset="1" stop-color="#323992"/></linearGradient><linearGradient id="linear-gradient-89" x1="920.51" y1="731.74" x2="952.61" y2="731.74" xlink:href="#linear-gradient-2"/><linearGradient id="linear-gradient-90" x1="2205.97" y1="4208.19" x2="2171.24" y2="4655.17" gradientTransform="translate(-3024.72 -1898.89) rotate(-30.74)" xlink:href="#linear-gradient-88"/><linearGradient id="linear-gradient-91" x1="913.22" y1="715.98" x2="944.94" y2="715.98" xlink:href="#linear-gradient-2"/><linearGradient id="linear-gradient-92" x1="874.23" y1="669.71" x2="928.91" y2="669.71" xlink:href="#linear-gradient-2"/><linearGradient id="linear-gradient-93" x1="1136.44" y1="550.14" x2="1190.45" y2="550.14" xlink:href="#linear-gradient-2"/><linearGradient id="linear-gradient-94" x1="1590.1" y1="1525.47" x2="1648.04" y2="1458.22" gradientTransform="translate(989.17 -1461.06) rotate(47.54)" xlink:href="#linear-gradient-3"/><linearGradient id="linear-gradient-95" x1="1680.78" y1="1409.16" x2="1509.45" y2="1668" gradientTransform="matrix(0.97, 0.24, -0.24, 0.97, -228.2, -1067.73)" xlink:href="#linear-gradient-4"/><linearGradient id="linear-gradient-96" x1="1675.67" y1="1416.58" x2="1584.44" y2="1569.74" gradientTransform="translate(-945.25 -235.16) rotate(-15.18)" xlink:href="#linear-gradient-4"/><linearGradient id="linear-gradient-97" x1="1669.27" y1="1525.07" x2="1770.14" y2="1407.99" gradientTransform="translate(1889.58 -1474.19) rotate(71.12)" xlink:href="#linear-gradient-3"/><linearGradient id="linear-gradient-98" x1="1827.14" y1="1322.6" x2="1528.87" y2="1773.19" gradientTransform="matrix(0.52, 0.85, -0.85, 0.52, 1407.42, -1587.75)" xlink:href="#linear-gradient-4"/><linearGradient id="linear-gradient-99" x1="1818.24" y1="1335.51" x2="1659.42" y2="1602.14" gradientTransform="translate(-945.25 -235.16) rotate(-15.18)" xlink:href="#linear-gradient-4"/><linearGradient id="linear-gradient-100" x1="1718.15" y1="1696.49" x2="1821.94" y2="1576.02" gradientTransform="translate(-798.84 -497.35) rotate(-8.03)" xlink:href="#linear-gradient-3"/><linearGradient id="linear-gradient-101" x1="1880.59" y1="1488.16" x2="1573.68" y2="1951.81" gradientTransform="translate(1697.72 -1556.56) rotate(60.48)" xlink:href="#linear-gradient-4"/><linearGradient id="linear-gradient-102" x1="1871.44" y1="1501.44" x2="1708.01" y2="1775.8" gradientTransform="translate(-945.25 -235.16) rotate(-15.18)" xlink:href="#linear-gradient-4"/><linearGradient id="linear-gradient-103" x1="1845.72" y1="1558.23" x2="1921.77" y2="1469.97" gradientTransform="translate(-661.86 -744.39) rotate(-1.34)" xlink:href="#linear-gradient-3"/><linearGradient id="linear-gradient-104" x1="1964.74" y1="1405.59" x2="1739.87" y2="1745.3" gradientTransform="matrix(0.51, 0.86, -0.86, 0.51, 1584.21, -1724.02)" xlink:href="#linear-gradient-4"/><linearGradient id="linear-gradient-105" x1="1958.03" y1="1415.32" x2="1838.3" y2="1616.34" gradientTransform="translate(-945.25 -235.16) rotate(-15.18)" xlink:href="#linear-gradient-4"/></defs><title>welcome_box_ventasnube</title><g id="Background"><rect class="cls-3" x="-854" width="2475" height="1650"/></g><g id="Illustration"><path class="cls-4" d="M1408.47,400.39c-32.46-105-103.72-183.93-173.09-159.71-41.53,14.5-82.81,63.16-122.63,38.73-28.7-17.61-44.9-67.53-69-98.86-37.14-48.22-89.85-47.66-135.1-26.05s-86.69,61.33-131.4,85.89C701,282.24,616,277.7,541.54,227.8c-32.68-21.91-63.26-52.15-96.53-71.44s-71-26.78-103.1-2.65-55.15,87.21-44,142.89c2.22,11.1,5.7,22,5.25,33.72-.73,18.73-11.59,32.44-22.57,36.61s-22.42,1.44-33.68,1.92C196.39,371,151.24,447.78,151,532c-.2,69.83,25.65,131.19,47.75,190.53s41.95,130.54,28.79,196.84c-7.81,39.32-26.12,70.07-38.11,106.34-31.1,94-14.48,218.48,28.95,297.79S326.84,1441.61,391,1450.84s128.55-8.1,192.15-25.24,128-34.19,192.18-24.37c0,0,253,60.87,381,33.21,26.8-5.79,57.57-18.24,68.9-59.13,9.56-34.53,1-75,2.94-112.88,2.84-54.6,27.43-99.32,54.23-131.06s57.22-55.37,81.37-92.56c47.25-72.75,63.28-185.37,70.32-291.92C1441.92,629.5,1440.92,505.38,1408.47,400.39Z"/><path class="cls-5" d="M114.05,251.73c-2.33-2.42.38-6.72,3.33-5.14,46,24.6,226.71,102.12,325.79,307.21,91.55,189.53,118.8,339.64,128,395.35a14.6,14.6,0,0,1-19.4,16.09c-62.18-22.64-233-95.15-279.59-222.6C216.4,590.34,225.13,366.84,114.05,251.73Z"/><path class="cls-6" d="M181.55,427.88S333.18,534.05,496.29,995.29C496.29,995.29,307.81,540.44,181.55,427.88Z"/><path class="cls-7" d="M75.43,557c2.54,80.12,36.32,545.8,479,592.59,0,0,56.67-312.3-469-598.78A6.79,6.79,0,0,0,75.43,557Z"/><path class="cls-6" d="M128.22,618.94c10.21,24.25,21.41,48.16,33,71.84s23.73,47.09,36.33,70.24,25.74,46,39.4,68.53,27.76,44.79,42.65,66.51c29.62,43.54,61.68,85.45,97.09,124.31,4.31,5,9,9.58,13.48,14.37l6.79,7.13c2.27,2.38,4.67,4.62,7,6.94,4.71,4.57,9.32,9.25,14.11,13.74l14.54,13.26a592.06,592.06,0,0,0,62.07,48.06l.05,0a4.35,4.35,0,1,1-4.83,7.23l0,0a599.53,599.53,0,0,1-62.64-49.3l-14.61-13.53c-4.8-4.58-9.42-9.34-14.15-14-2.33-2.36-4.73-4.64-7-7.06l-6.8-7.25c-4.5-4.88-9.18-9.58-13.49-14.61-35.4-39.47-67.29-81.89-96.7-125.85-14.78-21.94-28.73-44.42-42.29-67.11s-26.54-45.73-39-69-24.42-46.87-35.86-70.7-22.41-47.84-32.49-72.33a1.84,1.84,0,0,1,3.4-1.42Z"/><path class="cls-7" d="M431.71,21.8C384.54,138.68,137.84,830.06,745,1178.1c0,0,279.58-413.36-295-1158.85A10.66,10.66,0,0,0,431.71,21.8Z"/><path class="cls-6" d="M466.9,147.35c-1.24,42.29-.71,84.7.65,127s3.83,84.63,7.3,126.84c7,84.41,18,168.53,34.41,251.58s38.43,165.05,69,243.89c7.58,19.73,15.9,39.15,24.72,58.34s18.3,38.06,28.53,56.51A680.67,680.67,0,0,0,702,1116.27l0,0a4,4,0,0,1-6.13,5l0,0a688.42,688.42,0,0,1-70.85-106.24q-15.34-28-28.51-57.11c-8.79-19.37-17.09-39-24.62-58.84-30.4-79.45-52-162-68.22-245.26S477,486.16,470.36,401.57q-4.94-63.45-6.74-127.08c-1.18-42.41-1.52-84.82-.09-127.28a1.69,1.69,0,0,1,3.37.12Z"/><path class="cls-7" d="M1519.54,866c-14.81,85.57-120.4,579.37-581,547,0,0-10.45-346,571.68-555.55C1515.32,855.62,1520.5,860.38,1519.54,866Z"/><path class="cls-6" d="M1458.56,924.43c-14.55,25.13-30,49.45-45.7,73.46s-32.06,47.46-48.76,70.51a1688.73,1688.73,0,0,1-105.74,132.08q-28,31.17-57.4,60.37-29.61,28.89-60.84,55.25c-21,17.26-42.51,33.56-64.71,48.46a606.93,606.93,0,0,1-68.88,39.19,2.39,2.39,0,0,1-3.29-1.71,3.36,3.36,0,0,1,1.46-4h0a601.27,601.27,0,0,0,68.43-38.47c22.1-14.66,43.56-30.73,64.5-47.78q31.2-26,60.8-54.65,29.43-28.87,57.44-59.84a1683.78,1683.78,0,0,0,106-131.16q25.14-34.36,49-70.11c15.81-23.87,31.3-48.1,45.88-73l0,0a1,1,0,0,1,1.5-.32A1.47,1.47,0,0,1,1458.56,924.43Z"/><path class="cls-7" d="M1342.43,109.06c20.59,122.77,108,840.46-625.63,1009.13,0,0-192.74-463.87,606.79-1016.36C1330.58,97,1341.08,101,1342.43,109.06Z"/><path class="cls-6" d="M1277,216.12c-4.63,20.63-9.93,41-15.44,61.41s-11.41,40.63-17.55,60.82q-18.39,60.57-40.17,120c-29,79.24-62.38,157-101.32,231.84S1019,837.14,966.58,903.13a898,898,0,0,1-85,93.22c-15.32,14.38-31.07,28.31-47.52,41.34s-33.48,25.29-51,36.74a3.37,3.37,0,0,1-4.74-1.06,3.61,3.61,0,0,1,1.11-4.88h0l0,0q26.09-16.86,50.61-36.14c16.34-12.83,32-26.56,47.24-40.77A889,889,0,0,0,962,899.35c52.38-65.38,97-137,136.13-211.43S1170.84,536,1200.14,457q21.91-59.26,40.58-119.68,9.32-30.19,17.75-60.65c5.58-20.3,11-40.7,15.65-61.19v0a1.48,1.48,0,0,1,1.75-1.14A1.45,1.45,0,0,1,1277,216.12Z"/><path class="cls-8" d="M95.46,720.7c4.29-10.55,23.86-16,36.39-31.6a22.19,22.19,0,0,1,3.12-3.16c24.36-20.24,53.56-23.12,77.56-15.53a1.09,1.09,0,0,1,.23.09c18.66,8.53,32.8-14.72,63.76-5.14.69.21,1.31.51,1.07,1.18-9.55,27.4-25.42,59.19-60.3,90.47a2.06,2.06,0,0,1-1.92.44l-118.6-34A2,2,0,0,1,95.46,720.7Z"/><path class="cls-9" d="M166.94,795.34C62.72,893.14,28.62,1155.05,97.47,1346.1c11.17,114.83,677.86,2.46,482.14-275.8-91.71-114.57-193-258-331.37-296.21Z"/><path class="cls-10" d="M161.59,794.14c-22.05-26.42-40.52-47.18-66-70.44a.46.46,0,0,1,.36-.78c20,.94,38.34-7.44,66.29-23.73a.48.48,0,0,0,.11-.09c14.21-15.38,34.65-16.68,57.19-13.25h.09c23-1.28,31.47.55,57.32-19.94a.45.45,0,0,1,.72.48,424.94,424.94,0,0,0-31.78,103.5.59.59,0,0,0,.06.43C252.66,785.29,167.86,810.78,161.59,794.14Z"/><g class="cls-11"><path class="cls-3" d="M306.9,1241.65l-6.8-23c-24.26,6.12-49.65,7.47-68.67,5.07a13.88,13.88,0,0,1-12-13.54L219,1187a14,14,0,0,1,15.61-14.15c18.77,2.06,41,1.51,63.29-5.06,23.09-6.83,38-19.75,33.25-35.79-4.27-14.49-20.13-19.16-54.77-18.29-49.49,1-88.27-9.24-100.18-49.55-10.76-36.41,7.65-72.06,51.63-93.14l-6.79-23a14,14,0,0,1,9.44-17.37l13.51-4a14,14,0,0,1,17.36,9.44l6.1,20.65c22.45-5.66,39.72-6.64,53.87-5.93a13.91,13.91,0,0,1,13.09,13.64l.48,21.4a13.93,13.93,0,0,1-15,14.24,145.53,145.53,0,0,0-52.86,5.71c-27.4,8.1-31.88,21.76-28.87,31.94,3.7,12.52,22.69,16.28,61.54,16.71,55.4.23,82.78,15.12,94,53.09,10.29,34.83-6.29,73.78-54.07,96.41l7.6,25.74a14,14,0,0,1-9.44,17.36l-13.51,4A14,14,0,0,1,306.9,1241.65Z"/></g><path class="cls-12" d="M206,804.12c-10.57,2.73-29.83,6.65-42.68,3.16-9.75-2.65-11.6-8.67-11.83-12-.17-2.48,2-4.74,4.75-5s5.2,1.45,5.37,3.93c.06.93.21,3.11,5.21,4.47,8.11,2.2,23.58.64,40.37-4.1C223.52,789.9,238,783.12,244,777.23c2.14-2.1,2.95-3.77,2.39-4.94-1.06-2.25.17-5,2.76-6s5.55-.16,6.62,2.09c1.25,2.64,2.33,8.08-4.48,14.76-7.43,7.3-23,14.79-41.59,20C208.6,803.42,207.37,803.76,206,804.12Z"/><path class="cls-13" d="M1242,1058.24c3.76,2.91,107-4.56,150.31,4.41,0,0,33.6-146.61-62.88-152.37s-129.94,53.78-129.94,53.78Z"/><path class="cls-14" d="M1140.13,903.37l189.33,6.91s-69,.94-61.35,88.2,46.51,342-52.22,342.28-100.32-44.84-100.32-44.84Z"/><path class="cls-15" d="M1051.71,862.43l73.18-17s48.93-4.39,55.55,39.1,4.7,301.15,2.63,354.29,2.91,94,32.82,102l-217.56,3.77Z"/><path class="cls-5" d="M902.93,866s133.26,7.32,222-20.58c0,0-59-4-59,132.11,0,104.1,15.44,302.78,2,340.5s-63.88,88.42-136.13,44.84S902.93,866,902.93,866Z"/><path class="cls-14" d="M867.5,661.85s147,16,166-8.9c0,0-15.07-44.85-59.81-41.86S867.5,661.85,867.5,661.85Z"/><path class="cls-16" d="M389.32,712.31c12.82,144.08,39.75,448.85,51.47,597.3A66.75,66.75,0,0,0,503.06,1371c118,7.57,383.62,22.27,485.54,8.59h0a67.83,67.83,0,0,1-37.84-61.39L956.17,652c.19-23.54,23.64-40.46,45.68-32.2q20.83,7.82,31.62,33.14c-9.62-28-24.76-48.55-59.81-41.86,0,0-342.83,3.43-509.18,13.74A80.48,80.48,0,0,0,389.32,712.31Z"/><g class="cls-17"><path class="cls-5" d="M474.13,643.9l460.65-17.74c-19,140.66-11,427.1-3.73,709.4a44.36,44.36,0,0,0,25.38,39h0s-307.25,3.54-439.27-5.83a66.52,66.52,0,0,1-61.06-56.54c-18.13-121-61.49-433.39-52.46-598.81A73.43,73.43,0,0,1,474.13,643.9Z"/></g><path class="cls-18" d="M469.06,844.58l5.38,51.6a19.11,19.11,0,0,0,18.27,17.12l30.05,1.15a19.12,19.12,0,0,0,19.84-19.1V839.69a19.11,19.11,0,0,0-20.68-19.05l-35.41,2.91A19.12,19.12,0,0,0,469.06,844.58Z"/><path class="cls-19" d="M574.7,828.67c50-1.55,241.94-7.79,290.41-9.37a10.82,10.82,0,0,1,11.17,10.82h0a10.82,10.82,0,0,1-10.43,10.82L575.63,851.72a10.82,10.82,0,0,1-11.13-9.43l-.19-1.4A10.83,10.83,0,0,1,574.7,828.67Z"/><path class="cls-20" d="M571.56,896.7h0a4.61,4.61,0,0,0,4.06,2.24l199.28-4.33a4.6,4.6,0,0,0,4.5-4.6V876.87a4.6,4.6,0,0,0-4.77-4.6L580.9,879.51A11.37,11.37,0,0,0,571.56,896.7Z"/><path class="cls-21" d="M469.06,987.78l5.38,51.6a19.1,19.1,0,0,0,18.27,17.12l30.05,1.15a19.11,19.11,0,0,0,19.84-19.1V982.89a19.12,19.12,0,0,0-20.68-19l-35.41,2.92A19.1,19.1,0,0,0,469.06,987.78Z"/><path class="cls-22" d="M574.7,971.88c50-1.56,241.94-7.79,290.41-9.37a10.82,10.82,0,0,1,11.17,10.82h0a10.84,10.84,0,0,1-10.43,10.82L575.63,994.92a10.81,10.81,0,0,1-11.13-9.42l-.19-1.41A10.82,10.82,0,0,1,574.7,971.88Z"/><path class="cls-23" d="M571.56,1039.9h0a4.61,4.61,0,0,0,4.06,2.25l199.28-4.33a4.61,4.61,0,0,0,4.5-4.6v-13.14a4.6,4.6,0,0,0-4.77-4.6l-193.73,7.24A11.37,11.37,0,0,0,571.56,1039.9Z"/><path class="cls-24" d="M469.06,1131l5.38,51.6a19.11,19.11,0,0,0,18.27,17.12l30.05,1.15a19.12,19.12,0,0,0,19.84-19.1V1126.1a19.11,19.11,0,0,0-20.68-19L486.51,1110A19.12,19.12,0,0,0,469.06,1131Z"/><path class="cls-25" d="M574.7,1115.09c50-1.56,241.94-7.8,290.41-9.38a10.83,10.83,0,0,1,11.17,10.82h0a10.82,10.82,0,0,1-10.43,10.82l-290.22,10.78a10.82,10.82,0,0,1-11.13-9.43l-.19-1.4A10.81,10.81,0,0,1,574.7,1115.09Z"/><path class="cls-26" d="M571.56,1183.11h0a4.61,4.61,0,0,0,4.06,2.24L774.9,1181a4.59,4.59,0,0,0,4.5-4.6v-13.14a4.6,4.6,0,0,0-4.77-4.6l-193.73,7.25A11.37,11.37,0,0,0,571.56,1183.11Z"/><path class="cls-27" d="M1048.61,1163.59a2.25,2.25,0,0,1-2.24-2.2c0-.07-.14-7.13-.81-31.35a2.24,2.24,0,1,1,4.48-.12c.68,24.24.82,31.32.82,31.39a2.24,2.24,0,0,1-2.2,2.28Z"/><path class="cls-7" d="M1047,1104.49a2.25,2.25,0,0,1-2.24-2.18c-.48-15.76-1.23-33.18-2-51.63-1.07-24.92-2.18-50.7-2.77-75.52-1.55-65.53,9.26-90.68,18.6-100.24,5.08-5.2,9.33-5.35,9.8-5.35a2.24,2.24,0,0,1,0,4.48c-.51,0-26.27,2.87-24,101,.58,24.78,1.69,50.54,2.77,75.44.79,18.46,1.54,35.9,2,51.69a2.25,2.25,0,0,1-2.18,2.31Z"/><path class="cls-7" d="M1260.29,1097.14a2.24,2.24,0,0,1-2.24-2.11c0-.59-3.6-59.66-10-108.82-6.63-51,21.28-61.76,22.47-62.19a2.24,2.24,0,0,1,1.55,4.21h0c-1.06.39-25.71,10.18-19.57,57.41,6.42,49.31,10,108.53,10,109.12a2.26,2.26,0,0,1-2.11,2.38Z"/><path class="cls-28" d="M589,1342.76c-2.17,0-4.36-1-6.69-3.18-9-8.24-11.11-21.08-11.66-33.14-4.27,4.81-8.66,9.49-13,14.11L556,1319c4.87-5.2,9.82-10.47,14.59-15.92a352.08,352.08,0,0,1,2.22-48.91c1.14-9.86,2.79-20.31,7.06-29.82,1.35-3,3.59-7.31,7.41-10s9.11-3.07,12.55-.76c3.89,2.62,4.94,7.62,5.4,11.16,2.72,21.14-5.54,40.52-12.94,53.07a177.67,177.67,0,0,1-19.34,26.1c.36,12.26,2,25.74,11,34,1.94,1.78,3.67,2.62,5.27,2.56,2.65-.09,4.74-2.59,6.44-5A133.42,133.42,0,0,0,613,1300.76a35.83,35.83,0,0,1,3-10.61l2.2.77q-1.28,5.26-3,10.36a33.73,33.73,0,0,0,.4,10.61c.38,1.89,2,8.12,6.67,9,3.54.67,7-1.83,11-7.87l14.45-22-1.48,6.38c-.72,3.11-1.92,10.54,2.56,12.38,2.57,1.05,5.3-.48,8.19-2.11s5.8-3.27,9.09-2.83l1.2.16-.2,1.2c-.75,4.3-.39,9.59,3.06,10.35,2.25.5,4.11-1.23,6.28-3.23,1.86-1.72,3.78-3.49,6.26-4.09l.55,2.27c-1.89.46-3.58,2-5.22,3.54-2.43,2.24-4.93,4.56-8.38,3.8-4.65-1-5.67-6.51-5-11.72-2.11.15-4.23,1.34-6.44,2.59-3.25,1.83-6.61,3.72-10.23,2.23-3.27-1.34-4.89-4.81-4.7-9.8l-8,12.14c-2.87,4.36-7.38,10-13.4,8.88-4.13-.79-7.32-4.85-8.52-10.85a34.56,34.56,0,0,1-.58-4.17,136.15,136.15,0,0,1-15.25,28.55c-2,2.9-4.59,5.88-8.28,6Zm5.38-128.41a10.3,10.3,0,0,0-5.81,1.89c-3.35,2.34-5.38,6.27-6.61,9-4.14,9.22-5.75,19.45-6.87,29.13a346.47,346.47,0,0,0-2.26,46,170,170,0,0,0,17.39-23.79c7.22-12.23,15.27-31.1,12.64-51.58-.63-4.9-2-7.93-4.38-9.51A7.31,7.31,0,0,0,594.38,1214.35Z"/><text class="cls-29" transform="translate(510.61 780.81) rotate(-1.07)">B<tspan class="cls-30" x="104.78" y="0">O</tspan><tspan x="210.02" y="0">X</tspan></text><path class="cls-31" d="M902.37,1476c9.17.79,25.1,2.08,37.65,2.63,7.55.34,11.9-.4,14.4-1.41,0,.29,0,.55,0,.8a2.59,2.59,0,0,1-2.46,2.45,439.37,439.37,0,0,1-49.31,0,1.84,1.84,0,0,1-1.5-2.77A13.41,13.41,0,0,1,902.37,1476Z"/><path class="cls-32" d="M940,1478.61c-12.55-.55-28.48-1.84-37.65-2.63,9-11.07,37.65-18.53,37.65-18.53h8.09a34,34,0,0,1,6.31,19.75C951.92,1478.21,947.57,1479,940,1478.61Z"/><path class="cls-33" d="M949.47,1444.25l-.75,15a3.43,3.43,0,0,1-2.92,3.22,13.39,13.39,0,0,1-6.08-.5,4,4,0,0,1-2.72-3.11l-2.61-14.58Z"/><path class="cls-34" d="M1054.51,1478.5c4-.55,5.78-2.62,6.54-4.83v.06a4.8,4.8,0,0,1-3.48,5.89c-6.87,1.63-6.87,1.63-9.65,1.52a9.62,9.62,0,0,1-7.24-3.34l0,0C1043.67,1479.25,1047.88,1479.43,1054.51,1478.5Z"/><path class="cls-35" d="M1035.75,1444.15h6.67c10.16-.2,16.54,21.22,18.63,29.52-.76,2.21-2.56,4.28-6.54,4.83-6.63.93-10.84.75-13.84-.73-5.49-7.22-8.21-17.8-9.52-24A8.44,8.44,0,0,1,1035.75,1444.15Z"/><path class="cls-36" d="M1041.56,1430.25l3.71,14.73a4,4,0,0,1-2.08,4.53c-2.08,1.07-5,2.18-7.67,1.86a3.35,3.35,0,0,1-2.73-2.23l-5.43-15.49Z"/><path class="cls-37" d="M1046,1434.51c-4.61,4.09-19.59,4.63-19.59,4.63-54-129.57-76.07-148-76.07-148,7.79,48.91,1.26,157.18,1.26,157.18-8.91,3.93-20.4,0-20.4,0a834.81,834.81,0,0,0-27.56-204.94c36.48-.82,55.89-13.3,62.22-18.31C996.26,1274.12,1046,1434.51,1046,1434.51Z"/><path class="cls-38" d="M956.58,1076.09c6.9,34.44,4.43,96.1,2.8,124.22-.46,7.91,5.06,18.86,9.52,26.34a2.34,2.34,0,0,1-.95,3.3c-7.46,3.83-32.76,15.73-62.08,17.21a4.17,4.17,0,0,1-4.2-3.13c-21.75-81.2-47-133.09-47-133.09C882.55,1066.41,956.58,1076.09,956.58,1076.09Z"/><path class="cls-39" d="M946.64,1288.1a1.74,1.74,0,0,0,1.47-2.63,54.13,54.13,0,0,0-21.4-18.58,1.73,1.73,0,1,0-1.51,3.11,51.73,51.73,0,0,1,20,17.27A1.73,1.73,0,0,0,946.64,1288.1Z"/><path class="cls-40" d="M999.89,1175c-2.22,16-8.77,33.55-21.88,52.14l-5-4.06a153.94,153.94,0,0,0,2.48-49.83C983.6,1171.62,993.15,1173.24,999.89,1175Z"/><path class="cls-41" d="M948.86,1118.59l7.72-42.5s51.53,39.39,43.31,98.86c-6.74-1.71-16.29-3.33-24.38-1.75C973.15,1154.11,966.11,1133.39,948.86,1118.59Z"/><path class="cls-42" d="M853.85,1111.28,883.63,1148c3.22,25.87-7.51,40.11-21,47.94a91,91,0,0,0-13.31-25.41C863.05,1146.63,853.85,1111.28,853.85,1111.28Z"/><path class="cls-43" d="M849.33,1170.48a91,91,0,0,1,13.31,25.41c-35,24.83-52.44,9.49-52.44,9.49v-4.9a9.59,9.59,0,0,1,7.09-9.32C831.35,1187.47,844.33,1179.18,849.33,1170.48Z"/><path class="cls-44" d="M873,1058.05l9.6,35.3a6.87,6.87,0,0,0,9.19,4.57,137.55,137.55,0,0,0,13.84-6.32,9.25,9.25,0,0,0,3.26-13.3l-20-29.77Z"/><path class="cls-45" d="M853.85,1031.22c-.09.6,8,40.29,8,40.29l22.56-5.11-2.09-38.75S855.31,1021.07,853.85,1031.22Z"/><path class="cls-46" d="M875.38,1036.29l2.7,20.32a2.49,2.49,0,0,1,0,.77c-.23,1.6-1.41,7-6.89,5.47-5-1.41-9.51-2.62-12.66-1.66a2.87,2.87,0,0,0-2,3.31,123.51,123.51,0,0,0,5.2,18.49,2.85,2.85,0,0,0,3.46,1.69c4.28-1.25,13.23-4.13,19.89-8.14a2.84,2.84,0,0,0,1.39-2.57c-.21-5.13-.81-20.72-.31-25.09.48-4.1,5.51-6.56,7.7-7.44a2.8,2.8,0,0,0,1.56-1.57c1-2.54,2.41-8.41-5-10.82a2.85,2.85,0,0,1-1.81-3.7c1.09-3.06,1.55-7.71-4.17-10.28s-10.17.49-12.51,3a2.87,2.87,0,0,1-3.65.43,2.26,2.26,0,0,0-2.58.08,2.81,2.81,0,0,1-4-1.21c-1.4-2.86-4.24-5.92-9.93-4.94-10.11,1.73-11.26,12.93-8.59,19.49s13.52,4.07,19,.76c4.14-2.52,9.51.12,11.85,1.53A2.84,2.84,0,0,1,875.38,1036.29Z"/><path class="cls-47" d="M887.1,1056.29s-4.16-11.64.11-14.49,10.6-1.37,9.21,7.06C894.68,1059.35,887.1,1056.29,887.1,1056.29Z"/><path class="cls-48" d="M1110.67,1111,699.28,1246l19.63,60.62,413.77-131.72a19,19,0,0,0,13.07-20.63c-1.24-9.4-5.47-22.3-17-37.62A16.3,16.3,0,0,0,1110.67,1111Z"/><path class="cls-49" d="M590,1311l48.79-29c4.7,6.17,8.84,15.66,9.09,30l-56.22,4.26A2.83,2.83,0,0,1,590,1311Z"/><path class="cls-50" d="M699.28,1246c25,28.13,19.63,60.62,19.63,60.62l-71,5.39c-.25-14.37-4.39-23.86-9.09-30Z"/><path class="cls-14" d="M1117.92,1128.62a1.2,1.2,0,0,0-1.11-2.09l-393,129.86a1.2,1.2,0,0,0-.76,1.52,1.19,1.19,0,0,0,1.51.76l393.06-129.86A1.31,1.31,0,0,0,1117.92,1128.62Z"/><path class="cls-14" d="M1127,1151.34a1.2,1.2,0,0,0,.4-1.33,1.19,1.19,0,0,0-1.51-.76L732.83,1279.11a1.2,1.2,0,0,0,.75,2.28l393.06-129.86A1.23,1.23,0,0,0,1127,1151.34Z"/><path class="cls-51" d="M975.08,1222.32l-23.26-1.89-10.08,9.29s2.38,3.29,9.84,1.4a106,106,0,0,1,17.66-2.36s10.28,4.64,10.41-4Z"/><path class="cls-52" d="M825.67,1215.09c-2,1.57-8.91-1.71-13.13-4a4.85,4.85,0,0,1-2.34-5.73c1-3.2,2.7-7.33,4.79-7.85C818.44,1196.66,834,1208.62,825.67,1215.09Z"/><path class="cls-53" d="M1321,1446.14s1.88,10.6,2.8,21.1a7.23,7.23,0,0,1-6.93,7.83c-14,.59-44,1.72-54.71,1.24a2.35,2.35,0,0,1-2.07-3.22h0a5.22,5.22,0,0,1,2.7-2.84l49.48-22.7Z"/><path class="cls-54" d="M1322.58,1439.9l-1.51,12.69s-8.66,4-14.58-.51l3.59-14.14Z"/><path class="cls-55" d="M1321.45,1201.42c.65,3.31,3.49,165.31-13.85,237.9a2.47,2.47,0,0,0,1.45,2.87,42.86,42.86,0,0,0,14.12,2.87,4.26,4.26,0,0,0,4.22-3c5-16.84,28.72-101.23,31.82-181.85,3.46-90.08,0-3.07,0-3.07l-2-55.68Z"/><path class="cls-56" d="M1378,1451.67s3,5.35,5.88,19.58a4.4,4.4,0,0,1-3.89,5.28c-4.62.46-11.74,1-17.44,1a4.4,4.4,0,0,1-4.36-4.91c.63-5.19,2.59-13.71,8.67-20.35Z"/><path class="cls-57" d="M1380.59,1435.35l-3.52,19.19s-3.49,2.58-10.38.71l1.68-20.64Z"/><path class="cls-58" d="M1390.11,1206.39c14.18,85.47-3.08,211.25-8.91,235.87a3.83,3.83,0,0,1-3.1,2.91,25.93,25.93,0,0,1-11.1-.44,3.52,3.52,0,0,1-2.53-3.24c-.78-19.9.62-142.09-12.59-190.37a11,11,0,0,0-4.24-6L1322,1226.86l-2-29.43Z"/><path class="cls-59" d="M1299.71,1044.44c42.51-.7,89.42,11.14,89.42,11.14,12.67,73.82,2.22,159,2.22,159-32.92,8.61-70-5.27-70-5.27-5.48-30.86-31-117.69-31-117.69-20.77-2.57-37.88-8.56-52-16.47,10.75-12.43,15.82-28.26,18-37.62C1271.38,1042.17,1286.59,1044.66,1299.71,1044.44Z"/><path class="cls-60" d="M1174.13,981.93a8.14,8.14,0,0,1,9.46-2.66c6.25,26.39,39.06,47.78,72.76,58.23-2.2,9.36-7.27,25.19-18,37.62C1182.4,1043.73,1174.13,981.93,1174.13,981.93Z"/><path class="cls-61" d="M1175.14,983.21c-.44,1.38,4.62,3.5,7.6-2.18.11-2.71,1.76-14.36.14-16.58-8.67-11.79-25.47-26.58-25.47-26.58a4,4,0,0,0-.5,5.55l8.15,8.48c-1.71,3.07-3.79,5.67-4.76,9.39a11.35,11.35,0,0,0,1.14,8.39c1.43,2.57,3.38,5.92,5.22,8.54A11.31,11.31,0,0,0,1175.14,983.21Z"/><path class="cls-62" d="M1168.62,957.4l7.43,6.28,2.33,6.26-6.62,7.33s-2.23-12.41-3.88-15.1S1167.08,958.18,1168.62,957.4Z"/><path class="cls-63" d="M1372.83,1096.68l16.3-41.1s39.71,26.94,46.24,61.09a94.06,94.06,0,0,0-34.52,9.24C1397.92,1109.78,1372.83,1096.68,1372.83,1096.68Z"/><path class="cls-64" d="M1338.12,1135.35s44.59,25.16,59.63,3.68a16.84,16.84,0,0,0,3.1-13.12,94.06,94.06,0,0,1,34.52-9.24,47,47,0,0,1-5.13,32.31c-26.35,48.13-98-2.65-98-2.65Z"/><path class="cls-65" d="M1343.48,1167.17l-24.33-84.83a2.49,2.49,0,0,0-2.1-1.78c-4.41-.51-17.18-2-31.93-3.2-17.77-1.5-38.4-2.71-50.73-1.68a2.48,2.48,0,0,0-2,3.57c7,14.16,35.85,71.76,50.29,90.63a2.47,2.47,0,0,0,2,1l56.46-.52A2.49,2.49,0,0,0,1343.48,1167.17Z"/><path class="cls-14" d="M1282.59,1070l-17.64-2.94a1.27,1.27,0,0,0-1.41,1.65l1.75,5.28a1.24,1.24,0,0,0,1,.85l17,2.27a1.26,1.26,0,0,0,1.4-1.54l-1.08-4.61A1.26,1.26,0,0,0,1282.59,1070Z"/><path class="cls-14" d="M1295.8,1084.92l-1.45-7.56a1.75,1.75,0,0,0-1.54-1.41l-35.64-3.61a1.74,1.74,0,0,0-1.87,2.15l2.26,9.41a1.75,1.75,0,0,0,1.62,1.34L1294,1087A1.74,1.74,0,0,0,1295.8,1084.92Z"/><path class="cls-66" d="M1337.6,1146.68s3.39-13.92,2-18.85-4-11.28-12.84-9.87a129.67,129.67,0,0,0-19.25,5.12s.53,6.43,7.24,4.35l-4.17,3.22s.6,5.15,6.27,2.4l-3.87,4.26s2.43,4.23,6.6,1.52S1325.77,1148.35,1337.6,1146.68Z"/><path class="cls-67" d="M1342.77,1010l13.53,39a1.4,1.4,0,0,1-.64,1.69c-3.69,2-17,7.92-33-2.21a6.65,6.65,0,0,1-3.05-4.73l-4.38-33.8Z"/><path class="cls-68" d="M1313.34,973.82s-14.86,27.91-12.95,39.19,20.31,10.47,36.39,1.31L1348,984.18Z"/><path class="cls-69" d="M1336.07,999.52a1.15,1.15,0,0,1-.51-1.69,30.06,30.06,0,0,0,4.14-8.76s2.67-1.7-6.8-4-23.59-5.77-26.55-13.81c-2.9-7.85,4.71-27.57,16.83-11.86a1.16,1.16,0,0,0,1.83,0c2-2.59,7.21-8,14.47-4.7,6.79,3,7.56,8,7.46,10.52a1.15,1.15,0,0,0,1.36,1.17c3.44-.66,11.67-1.22,15.52,7.22,3.17,7,1.11,10.89-.77,12.81a1.14,1.14,0,0,0,.5,1.9c2.25.69,5.17,2.6,4.87,7.88-.4,7.3-8.57,6.65-10.9,6.32a1.18,1.18,0,0,0-1,.36c-2,2.21-11,11.56-20.71,12.69a1.16,1.16,0,0,1-1.22-1.53l4.21-12.22a1.15,1.15,0,0,0-.63-1.43Z"/><path class="cls-70" d="M1334.37,1001.25s10.58-7.24,11.35-1.14-9.52,8.83-14.62,6.56Z"/><path class="cls-71" d="M560.8,277.36H910.44a0,0,0,0,1,0,0V557.53a16.76,16.76,0,0,1-16.76,16.76H577.56a16.76,16.76,0,0,1-16.76-16.76V277.36A0,0,0,0,1,560.8,277.36Z" transform="translate(71.45 -104.6) rotate(8.55)"/><path class="cls-72" d="M563.59,276.78H913.22a0,0,0,0,1,0,0V521a16.76,16.76,0,0,1-16.76,16.76H580.34A16.76,16.76,0,0,1,563.59,521V276.78a0,0,0,0,1,0,0Z" transform="translate(68.73 -105.22) rotate(8.55)"/><rect class="cls-73" x="601.54" y="267.3" width="12.04" height="20.46" transform="translate(47.99 -87.21) rotate(8.55)"/><rect class="cls-74" x="628.33" y="271.33" width="12.04" height="20.46" transform="translate(48.89 -91.15) rotate(8.55)"/><rect class="cls-75" x="651.99" y="274.88" width="12.04" height="20.46" transform="translate(49.68 -94.63) rotate(8.55)"/><rect class="cls-76" x="678.77" y="278.91" width="12.04" height="20.46" transform="translate(50.58 -98.56) rotate(8.55)"/><rect class="cls-77" x="702.43" y="282.46" width="12.04" height="20.46" transform="translate(51.37 -102.04) rotate(8.55)"/><rect class="cls-78" x="729.21" y="286.49" width="12.04" height="20.46" transform="translate(52.26 -105.97) rotate(8.55)"/><rect class="cls-79" x="752.87" y="290.04" width="12.04" height="20.46" transform="translate(53.05 -109.45) rotate(8.55)"/><rect class="cls-80" x="779.65" y="294.07" width="12.04" height="20.46" transform="translate(53.95 -113.39) rotate(8.55)"/><rect class="cls-81" x="803.31" y="297.63" width="12.04" height="20.46" transform="translate(54.74 -116.86) rotate(8.55)"/><rect class="cls-82" x="830.1" y="301.65" width="12.04" height="20.46" transform="translate(55.64 -120.8) rotate(8.55)"/><rect class="cls-83" x="853.75" y="305.21" width="12.04" height="20.46" transform="translate(56.43 -124.28) rotate(8.55)"/><rect class="cls-84" x="880.54" y="309.23" width="12.04" height="20.46" transform="translate(57.32 -128.21) rotate(8.55)"/><g class="cls-85"><rect class="cls-3" x="729.59" y="319.86" width="36.33" height="36.33" transform="translate(58.54 -107.38) rotate(8.55)"/><rect class="cls-3" x="773.26" y="326.42" width="36.33" height="36.33" transform="translate(60 -113.79) rotate(8.55)"/><rect class="cls-3" x="816.48" y="332.92" width="36.33" height="36.33" transform="translate(61.45 -120.14) rotate(8.55)"/><rect class="cls-3" x="859.34" y="339.36" width="36.33" height="36.33" transform="matrix(0.99, 0.15, -0.15, 0.99, 62.88, -126.44)"/></g><g class="cls-85"><rect class="cls-3" x="593.09" y="345.55" width="36.33" height="36.33" transform="translate(60.84 -86.81) rotate(8.55)"/><rect class="cls-3" x="636.32" y="352.04" width="36.33" height="36.33" transform="translate(62.29 -93.16) rotate(8.55)"/><rect class="cls-3" x="679.18" y="358.48" width="36.33" height="36.33" transform="matrix(0.99, 0.15, -0.15, 0.99, 63.72, -99.46)"/><rect class="cls-3" x="722.76" y="365.03" width="36.33" height="36.33" transform="translate(65.18 -105.86) rotate(8.55)"/><rect class="cls-3" x="766.42" y="371.6" width="36.33" height="36.33" transform="translate(66.64 -112.28) rotate(8.55)"/><rect class="cls-3" x="809.64" y="378.09" width="36.33" height="36.33" transform="matrix(0.99, 0.15, -0.15, 0.99, 68.08, -118.63)"/><rect class="cls-3" x="852.51" y="384.53" width="36.33" height="36.33" transform="translate(69.52 -124.93) rotate(8.55)"/></g><rect class="cls-86" x="587.69" y="388.75" width="36.33" height="36.33" transform="translate(67.2 -85.52) rotate(8.55)"/><rect class="cls-86" x="630.91" y="395.25" width="36.33" height="36.33" transform="matrix(0.99, 0.15, -0.15, 0.99, 68.65, -91.87)"/><rect class="cls-87" x="673.78" y="401.69" width="36.33" height="36.33" transform="matrix(0.99, 0.15, -0.15, 0.99, 70.08, -98.17)"/><rect class="cls-86" x="717.36" y="408.24" width="36.33" height="36.33" transform="translate(71.54 -104.58) rotate(8.55)"/><rect class="cls-86" x="761.02" y="414.8" width="36.33" height="36.33" transform="translate(73 -110.99) rotate(8.55)"/><rect class="cls-86" x="804.24" y="421.3" width="36.33" height="36.33" transform="translate(74.45 -117.34) rotate(8.55)"/><rect class="cls-86" x="847.11" y="427.74" width="36.33" height="36.33" transform="translate(75.88 -123.64) rotate(8.55)"/><g class="cls-85"><rect class="cls-3" x="582.37" y="431.42" width="36.33" height="36.33" transform="translate(73.49 -84.26) rotate(8.55)"/><rect class="cls-3" x="625.59" y="437.92" width="36.33" height="36.33" transform="matrix(0.99, 0.15, -0.15, 0.99, 74.93, -90.61)"/><rect class="cls-3" x="668.46" y="444.36" width="36.33" height="36.33" transform="translate(76.36 -96.91) rotate(8.55)"/><rect class="cls-3" x="712.03" y="450.91" width="36.33" height="36.33" transform="matrix(0.99, 0.15, -0.15, 0.99, 77.82, -103.31)"/><rect class="cls-3" x="755.7" y="457.47" width="36.33" height="36.33" transform="translate(79.28 -109.73) rotate(8.55)"/><rect class="cls-3" x="798.92" y="463.97" width="36.33" height="36.33" transform="translate(80.73 -116.08) rotate(8.55)"/><rect class="cls-3" x="841.79" y="470.41" width="36.33" height="36.33" transform="matrix(0.99, 0.15, -0.15, 0.99, 82.16, -122.38)"/></g><g class="cls-85"><rect class="cls-3" x="576" y="473.83" width="36.33" height="36.33" transform="translate(79.72 -82.84) rotate(8.55)"/><rect class="cls-3" x="619.22" y="480.33" width="36.33" height="36.33" transform="translate(81.16 -89.19) rotate(8.55)"/><rect class="cls-3" x="662.08" y="486.77" width="36.33" height="36.33" transform="matrix(0.99, 0.15, -0.15, 0.99, 82.6, -95.49)"/></g><path class="cls-88" d="M629.05,254l-15.28-2.3a6.49,6.49,0,0,0-7.36,5.44l-2.13,14.21,4.62.7,1.38-9.24a6.49,6.49,0,0,1,7.36-5.44l15.29,2.3a6.3,6.3,0,0,1,1.62.47A6.48,6.48,0,0,0,629.05,254Z"/><path class="cls-89" d="M658.75,258.41l-15.29-2.3a6.49,6.49,0,0,0-7.36,5.44L634,275.77l4.62.69,1.39-9.24a6.49,6.49,0,0,1,7.36-5.44l15.28,2.3a6.39,6.39,0,0,1,1.63.48A6.5,6.5,0,0,0,658.75,258.41Z"/><path class="cls-90" d="M683.43,262.12l-15.29-2.3a6.49,6.49,0,0,0-7.36,5.44l-2.13,14.21,4.62.7,1.39-9.24a6.48,6.48,0,0,1,7.35-5.44l15.29,2.3a5.84,5.84,0,0,1,1.62.48A6.48,6.48,0,0,0,683.43,262.12Z"/><path class="cls-91" d="M708.85,265.94l-15.28-2.3a6.48,6.48,0,0,0-7.36,5.44l-2.14,14.21,4.62.7,1.39-9.24a6.49,6.49,0,0,1,7.36-5.44l15.28,2.3a5.91,5.91,0,0,1,1.63.48A6.5,6.5,0,0,0,708.85,265.94Z"/><path class="cls-92" d="M732.35,269.47l-15.28-2.3a6.49,6.49,0,0,0-7.36,5.44l-2.14,14.22,4.62.69,1.39-9.24a6.49,6.49,0,0,1,7.36-5.44l15.28,2.3a6.27,6.27,0,0,1,1.63.48A6.5,6.5,0,0,0,732.35,269.47Z"/><path class="cls-93" d="M757.78,273.29,742.49,271a6.5,6.5,0,0,0-7.36,5.44L733,290.65l4.62.69L739,282.1a6.49,6.49,0,0,1,7.35-5.44l15.29,2.3a6.61,6.61,0,0,1,1.62.48A6.49,6.49,0,0,0,757.78,273.29Z"/><path class="cls-94" d="M782.45,277l-15.28-2.3a6.49,6.49,0,0,0-7.36,5.44l-2.14,14.22,4.62.69,1.39-9.24a6.49,6.49,0,0,1,7.36-5.44l15.29,2.3a6.32,6.32,0,0,1,1.62.48A6.5,6.5,0,0,0,782.45,277Z"/><path class="cls-95" d="M810,281.14l-15.28-2.3a6.5,6.5,0,0,0-7.36,5.44l-2.14,14.22,4.62.69,1.39-9.24a6.5,6.5,0,0,1,7.36-5.44l15.28,2.3a6.69,6.69,0,0,1,1.63.48A6.5,6.5,0,0,0,810,281.14Z"/><path class="cls-96" d="M833.81,284.48l-15.28-2.29a6.48,6.48,0,0,0-7.36,5.43L809,301.84l4.62.7,1.39-9.25a6.49,6.49,0,0,1,7.36-5.43l15.28,2.3a6.26,6.26,0,0,1,1.63.47A6.5,6.5,0,0,0,833.81,284.48Z"/><path class="cls-97" d="M858.49,288.19,843.2,285.9a6.48,6.48,0,0,0-7.36,5.43l-2.13,14.22,4.62.69,1.39-9.24a6.48,6.48,0,0,1,7.36-5.43l15.28,2.29a6.82,6.82,0,0,1,1.63.48A6.5,6.5,0,0,0,858.49,288.19Z"/><path class="cls-98" d="M907.28,296.12,892,293.82a6.49,6.49,0,0,0-7.36,5.44l-2.13,14.21,4.62.7,1.39-9.24a6.48,6.48,0,0,1,7.35-5.44l15.29,2.3a6.19,6.19,0,0,1,1.62.47A6.48,6.48,0,0,0,907.28,296.12Z"/><path class="cls-99" d="M886.05,292.34,870.76,290a6.49,6.49,0,0,0-7.36,5.43l-2.13,14.22,4.62.7,1.39-9.24a6.48,6.48,0,0,1,7.35-5.44l15.29,2.3a6.19,6.19,0,0,1,1.62.47A6.48,6.48,0,0,0,886.05,292.34Z"/><rect class="cls-14" x="873.14" y="558.13" width="345.57" height="161.13" transform="translate(73.55 1384.59) rotate(-68.9)"/><path class="cls-100" d="M1057.78,478.51l86,33.19c-2.67,6.93,1.42,15.19,9.08,18.14.25.1.83.31.84.3L1053.3,790.38s-.57-.25-.82-.35c-7.66-2.95-16.1.24-18.82,7.28a1,1,0,0,1-.13.21l-84.08-32.44c4.58-11.87-2.87-16-10.54-19-.24-.1-.33,0-.33,0L1039,485.88s0,0,.28.13C1046.93,489,1055.11,485.44,1057.78,478.51Z"/><circle class="cls-101" cx="1045.58" cy="638.38" r="50.69" transform="translate(135.89 1458.88) rotate(-73.46)"/><path class="cls-3" d="M1075.63,655.47l-5-1.93a43.76,43.76,0,0,1-8.45,12.85,3.1,3.1,0,0,1-4,.28l-4.16-3.06a3.14,3.14,0,0,1-.39-4.7,36.17,36.17,0,0,0,7.73-11.9c1.94-5,1.68-9.42-1.81-10.77-3.15-1.21-6.14,1-10.7,7.21-6.56,8.91-13.66,14.38-22.43,11-7.91-3.05-11.72-11.17-9.47-21.84l-5-1.93a3.11,3.11,0,0,1-1.79-4l1.14-2.94a3.13,3.13,0,0,1,4-1.79l4.49,1.73a39.86,39.86,0,0,1,6.28-10.35,3.11,3.11,0,0,1,4.2-.46l3.86,2.83a3.11,3.11,0,0,1,.48,4.59,32.5,32.5,0,0,0-6.19,10.15c-2.3,6-.48,8.61,1.73,9.46,2.72,1,6-1.8,11.34-8.62,7.59-9.79,14-12.61,22.22-9.42,7.57,2.92,12.21,11.16,9.71,22.71l5.6,2.16a3.13,3.13,0,0,1,1.79,4l-1.14,2.94A3.13,3.13,0,0,1,1075.63,655.47Z"/><path class="cls-102" d="M949.39,777.68a.74.74,0,0,1-.25,0L921,766.76a.7.7,0,0,1-.39-.9l30.72-79.61a.69.69,0,0,1,1.28.5l-30.47,79,27.55,10.63a.69.69,0,0,1-.25,1.33Z"/><path class="cls-3" d="M1140.92,592a.73.73,0,0,1-.25,0,.68.68,0,0,1-.39-.89l30.08-78-29.52-11.39a.7.7,0,0,1-.39-.9.68.68,0,0,1,.89-.39L1171.5,512a.69.69,0,0,1,.39.36.75.75,0,0,1,0,.53l-30.34,78.62A.68.68,0,0,1,1140.92,592Z"/><rect class="cls-5" x="865.96" y="542.33" width="345.57" height="162.19" transform="matrix(0.36, -0.93, 0.93, 0.36, 83.2, 1368.12)"/><path class="cls-100" d="M1050.41,463.17l86,33.19c-2.67,6.92,1.78,15.28,9.44,18.23.25.1.2,0,1.2.39L1046.65,775.22l-1.16-.48c-7.67-3-16.29.21-19,7.25,0,.11-.32.19-.32.19l-84.08-32.44c4.58-11.87-3-16.11-10.67-19.07a1.16,1.16,0,0,0-.47-.1l100.41-260.23a1.18,1.18,0,0,0,.41.23C1039.43,473.53,1047.74,470.1,1050.41,463.17Z"/><circle class="cls-103" cx="1038.24" cy="622.95" r="50.69" transform="translate(-163 774.7) rotate(-38.16)"/><path class="cls-3" d="M1068.29,640l-5-1.93a43.69,43.69,0,0,1-8.45,12.86,3.1,3.1,0,0,1-4,.28l-4.16-3.07a3.12,3.12,0,0,1-.39-4.69,36.38,36.38,0,0,0,7.73-11.9c1.94-5,1.68-9.43-1.81-10.77-3.15-1.22-6.14.95-10.7,7.21-6.57,8.91-13.66,14.38-22.43,11-7.91-3.06-11.72-11.17-9.47-21.84l-5-1.93a3.13,3.13,0,0,1-1.79-4l1.14-2.94a3.11,3.11,0,0,1,4-1.78l4.49,1.73a40.13,40.13,0,0,1,6.29-10.35,3.1,3.1,0,0,1,4.2-.46l3.86,2.83a3.11,3.11,0,0,1,.48,4.59,32.55,32.55,0,0,0-6.19,10.14c-2.3,6-.48,8.61,1.73,9.47,2.72,1,6-1.8,11.34-8.63,7.59-9.78,14-12.6,22.22-9.42,7.57,2.92,12.21,11.17,9.71,22.72l5.6,2.16a3.12,3.12,0,0,1,1.79,4l-1.14,2.94A3.13,3.13,0,0,1,1068.29,640Z"/><path class="cls-104" d="M943.09,761.61a.73.73,0,0,1-.25,0l-29.17-11.26a.69.69,0,0,1-.4-.89l30.34-78.63a.68.68,0,0,1,.89-.39.69.69,0,0,1,.39.89l-30.08,78,28.53,11a.69.69,0,0,1,.39.89A.67.67,0,0,1,943.09,761.61Z"/><path class="cls-3" d="M1133.25,576.5a.74.74,0,0,1-.25,0,.69.69,0,0,1-.39-.89l30.08-78-28.53-11a.69.69,0,0,1-.39-.89.68.68,0,0,1,.89-.4l29.17,11.26a.71.71,0,0,1,.38.36.7.7,0,0,1,0,.53l-30.34,78.62A.69.69,0,0,1,1133.25,576.5Z"/><rect class="cls-14" x="859.89" y="528.63" width="345.57" height="162.19" transform="translate(-88.45 1035.45) rotate(-51.35)"/><path class="cls-7" d="M1092.23,460.54l72,57.58c-4.64,5.79-3,15.11,3.39,20.24.21.16.08.09.91.75L994.34,757c-.82-.67-.7-.59-.9-.75-6.42-5.13-15.52-4.75-20.23,1.14-.07.09-.29,0-.29,0L902.54,701.1c7.94-9.93,1.88-16.25-4.53-21.38a1.11,1.11,0,0,0-.53-.22l174.2-217.85s.23.17.44.33C1078.53,467.11,1087.6,466.33,1092.23,460.54Z"/><circle class="cls-5" cx="1032.35" cy="609.34" r="50.69" transform="matrix(0.97, -0.25, 0.25, 0.97, -121.21, 283.23)"/><path class="cls-3" d="M1055.86,634.69l-4.18-3.34a44.07,44.07,0,0,1-11.94,9.71,3.11,3.11,0,0,1-3.93-.95l-3-4.19a3.12,3.12,0,0,1,1-4.59,36.36,36.36,0,0,0,11-9c3.36-4.21,4.44-8.48,1.52-10.82-2.64-2.11-6.14-.94-12.38,3.65-9,6.51-17.36,9.59-24.7,3.73-6.63-5.3-7.81-14.19-2.44-23.68l-4.19-3.35a3.12,3.12,0,0,1-.49-4.39l2-2.46a3.13,3.13,0,0,1,4.39-.49l3.76,3a39.7,39.7,0,0,1,9.11-8,3.11,3.11,0,0,1,4.15.82l2.82,3.86a3.12,3.12,0,0,1-.92,4.53,32.54,32.54,0,0,0-9,7.8c-4,5-3.07,8.07-1.21,9.55,2.28,1.82,6.24.08,13.42-4.8,10.18-7,17.1-7.82,24-2.29,6.34,5.07,8.28,14.33,2.42,24.59l4.68,3.74a3.12,3.12,0,0,1,.49,4.39l-2,2.46A3.12,3.12,0,0,1,1055.86,634.69Z"/><path class="cls-105" d="M899.35,713.49a.66.66,0,0,1-.43-.15l-24.43-19.53a.69.69,0,0,1-.1-1l53.29-66.64a.69.69,0,0,1,1-.11.71.71,0,0,1,.11,1l-52.87,66.1,23.89,19.1a.7.7,0,0,1,.1,1A.67.67,0,0,1,899.35,713.49Z"/><path class="cls-106" d="M1137.13,593.5a.7.7,0,0,1-.43-.15.69.69,0,0,1-.1-1l52.2-65.28L1164.91,508a.69.69,0,1,1,.86-1.07l24.43,19.52a.73.73,0,0,1,.25.47.65.65,0,0,1-.15.5l-52.63,65.82A.67.67,0,0,1,1137.13,593.5Z"/><path class="cls-5" d="M980.33,681.91a14.36,14.36,0,1,1-20.18,2.25A14.35,14.35,0,0,1,980.33,681.91Z"/><path class="cls-5" d="M1115.25,513.19a14.36,14.36,0,1,1-20.19,2.25A14.36,14.36,0,0,1,1115.25,513.19Z"/><circle class="cls-107" cx="1027.81" cy="739.08" r="43.2" transform="translate(-100.21 1313.73) rotate(-62.71)"/><circle class="cls-108" cx="1027.81" cy="739.08" r="41.76" transform="translate(-229.23 589.11) rotate(-28.92)"/><path class="cls-109" d="M990.4,732.71a1.53,1.53,0,0,1-.64,0,1.4,1.4,0,0,1-1.09-1.65,39.77,39.77,0,0,1,28.68-30.55,40.52,40.52,0,0,1,7.13-1.26,1.39,1.39,0,1,1,.23,2.78,37.52,37.52,0,0,0-6.62,1.18,37,37,0,0,0-26.69,28.41A1.4,1.4,0,0,1,990.4,732.71Z"/><circle class="cls-109" cx="1028.93" cy="739.72" r="35.34" transform="translate(-221.7 944.22) rotate(-45)"/><path class="cls-110" d="M1032.46,766l-1-3.71a31.5,31.5,0,0,1-11,.57,2.23,2.23,0,0,1-1.88-2.22v-3.71a2.24,2.24,0,0,1,2.55-2.21,25.93,25.93,0,0,0,10.17-.59c3.72-1,6.16-3,5.46-5.61-.64-2.34-3.16-3.15-8.72-3.13-7.94,0-14.11-1.8-15.88-8.31-1.59-5.87,1.49-11.52,8.61-14.74l-1-3.71a2.23,2.23,0,0,1,1.57-2.75l2.18-.59a2.23,2.23,0,0,1,2.75,1.57l.9,3.33a28.7,28.7,0,0,1,8.66-.75,2.23,2.23,0,0,1,2,2.23v3.43a2.23,2.23,0,0,1-2.45,2.23,23.44,23.44,0,0,0-8.5.73c-4.42,1.2-5.18,3.37-4.74,5,.55,2,3.58,2.69,9.81,2.9,8.88.24,13.21,2.73,14.87,8.85,1.53,5.62-1.27,11.81-9,15.26l1.13,4.16a2.23,2.23,0,0,1-1.58,2.74l-2.18.6A2.25,2.25,0,0,1,1032.46,766Z"/><circle class="cls-111" cx="1133.07" cy="657.45" r="75.2" transform="translate(403.81 1745.69) rotate(-86.3)"/><circle class="cls-112" cx="1133.07" cy="657.45" r="72.7" transform="translate(184.4 1560.85) rotate(-73.72)"/><path class="cls-109" d="M1067.68,645.35a1.58,1.58,0,0,1-.65,0,1.4,1.4,0,0,1-1.09-1.65,68.7,68.7,0,0,1,61.41-54.55,1.4,1.4,0,0,1,1.51,1.28,1.39,1.39,0,0,1-1.27,1.51,66.18,66.18,0,0,0-11.72,2.07,65.42,65.42,0,0,0-47.19,50.25A1.39,1.39,0,0,1,1067.68,645.35Z"/><circle class="cls-109" cx="1135.02" cy="658.57" r="61.53" transform="translate(-133.24 995.47) rotate(-45)"/><path class="cls-113" d="M1141.16,704.29l-1.75-6.46a54.46,54.46,0,0,1-19.19,1A3.88,3.88,0,0,1,1117,695V688.5a3.91,3.91,0,0,1,4.45-3.85,45.31,45.31,0,0,0,17.69-1c6.49-1.76,10.73-5.27,9.51-9.78-1.11-4.06-5.5-5.47-15.17-5.44-13.82,0-24.58-3.13-27.65-14.46-2.78-10.22,2.58-20.06,15-25.67l-1.75-6.46a3.88,3.88,0,0,1,2.74-4.78l3.8-1a3.88,3.88,0,0,1,4.78,2.74l1.58,5.8a50.09,50.09,0,0,1,15.07-1.32,3.88,3.88,0,0,1,3.56,3.89v6a3.89,3.89,0,0,1-4.27,3.88,40.49,40.49,0,0,0-14.78,1.26c-7.7,2.09-9,5.87-8.26,8.73,1,3.52,6.23,4.69,17.07,5,15.46.41,23,4.74,25.9,15.4,2.65,9.79-2.22,20.55-15.69,26.57l2,7.23a3.92,3.92,0,0,1-2.74,4.79l-3.8,1A3.91,3.91,0,0,1,1141.16,704.29Z"/><circle class="cls-114" cx="1227.1" cy="805.97" r="77.38" transform="translate(-90.74 158.93) rotate(-7.15)"/><circle class="cls-115" cx="1227.1" cy="805.97" r="74.8" transform="translate(142.3 1795.2) rotate(-75.66)"/><path class="cls-109" d="M1159.8,793.48a1.3,1.3,0,0,1-.65,0,1.4,1.4,0,0,1-1.09-1.65,70.54,70.54,0,0,1,63.16-56.09,1.39,1.39,0,1,1,.23,2.78,67.8,67.8,0,0,0-60.65,53.87A1.39,1.39,0,0,1,1159.8,793.48Z"/><circle class="cls-109" cx="1229.1" cy="807.12" r="63.31" transform="translate(-214.11 525.56) rotate(-22.25)"/><path class="cls-116" d="M1235.43,854.17l-1.81-6.65a56,56,0,0,1-19.75,1,4,4,0,0,1-3.36-4v-6.65a4,4,0,0,1,4.58-4,46.6,46.6,0,0,0,18.2-1.05c6.68-1.81,11-5.42,9.78-10.06-1.13-4.19-5.65-5.63-15.61-5.6-14.22,0-25.28-3.22-28.45-14.88-2.85-10.52,2.66-20.64,15.43-26.41l-1.8-6.65a4,4,0,0,1,2.82-4.92l3.91-1.06a4,4,0,0,1,4.92,2.82l1.62,6a51.57,51.57,0,0,1,15.51-1.36,4,4,0,0,1,3.67,4v6.15a4,4,0,0,1-4.4,4,41.69,41.69,0,0,0-15.21,1.31c-7.92,2.14-9.29,6-8.49,9,1,3.62,6.4,4.82,17.56,5.2,15.9.42,23.67,4.87,26.65,15.84,2.73,10.07-2.28,21.15-16.15,27.34l2,7.44a4,4,0,0,1-2.82,4.92l-3.91,1.06A4,4,0,0,1,1235.43,854.17Z"/><circle class="cls-117" cx="1295.3" cy="678.26" r="56.69" transform="translate(-124.6 329.39) rotate(-13.83)"/><circle class="cls-118" cx="1295.3" cy="678.26" r="54.81" transform="translate(298.88 1748.3) rotate(-74.68)"/><path class="cls-109" d="M1246.09,669.46a1.29,1.29,0,0,1-.65,0,1.38,1.38,0,0,1-1.08-1.64,52.06,52.06,0,0,1,46.6-41.4,1.4,1.4,0,1,1,.24,2.78,49.71,49.71,0,0,0-8.78,1.55,49,49,0,0,0-35.33,37.63A1.39,1.39,0,0,1,1246.09,669.46Z"/><circle class="cls-109" cx="1296.77" cy="679.1" r="46.39" transform="translate(-100.38 1115.86) rotate(-45)"/><path class="cls-119" d="M1301.41,713.57l-1.33-4.87a41.35,41.35,0,0,1-14.47.75,2.94,2.94,0,0,1-2.46-2.91v-4.87a3,3,0,0,1,3.35-2.91,34.19,34.19,0,0,0,13.34-.76c4.89-1.33,8.09-4,7.17-7.38-.84-3.06-4.15-4.12-11.44-4.1-10.42,0-18.53-2.36-20.84-10.9-2.1-7.71,1.94-15.12,11.3-19.35l-1.32-4.87a2.94,2.94,0,0,1,2.06-3.61l2.87-.78a2.94,2.94,0,0,1,3.6,2.07l1.19,4.37a37.64,37.64,0,0,1,11.36-1,2.93,2.93,0,0,1,2.69,2.93v4.5a2.93,2.93,0,0,1-3.22,2.93,30.63,30.63,0,0,0-11.14.95c-5.81,1.58-6.81,4.43-6.23,6.59.72,2.65,4.7,3.53,12.87,3.8,11.65.31,17.34,3.57,19.53,11.61,2,7.38-1.67,15.5-11.83,20l1.47,5.46a2.93,2.93,0,0,1-2.06,3.6l-2.87.78A2.94,2.94,0,0,1,1301.41,713.57Z"/><path class="cls-3" d="M1223.55,366.2c-8,25.3-22.84,34.62-35,30.81-12.38-3.89-18.38-20-11.25-43.11,7.14-22.72,21.5-34.64,35.1-30.36C1226.46,328,1230.35,344.59,1223.55,366.2ZM1173,447.52l90.3-108,9.53,3-90.31,108Zm17.34-90.34c-4.49,13.81-4,25.12,2.66,27.22s12.94-6.48,17.53-21.07c4.18-13.3,4.83-24.87-2.38-27.13C1201.37,334.06,1194.6,343.7,1190.36,357.18Zm78.45,78.05c-7.9,25.11-22.71,34.66-35,30.81s-18.37-20-11-43.25c7.08-22.54,21.5-34.64,35-30.41C1271.78,396.79,1275.6,413.62,1268.81,435.23Zm-33.19-9c-4.43,13.62-4,25.12,2.65,27.22s13-6.49,17.54-21.07c4.24-13.49,4.83-24.87-2.38-27.14C1246.63,403.09,1239.86,412.73,1235.62,426.21Z"/><path class="cls-3" d="M1129.81,397.24h-15.06V385h15.06V362.85h11.68V385h15.07v12.28h-15.07v21.82h-11.68Z"/></g></svg>