<?xml version="1.0" encoding="utf-8"?>
<!-- Generator: Adobe Illustrator 23.0.5, SVG Export Plug-In . SVG Version: 6.00 Build 0)  -->
<svg version="1.1" id="Capa_1" xmlns="http://www.w3.org/2000/svg" xmlns:xlink="http://www.w3.org/1999/xlink" x="0px" y="0px"
	 viewBox="0 0 98.7 186.4" style="enable-background:new 0 0 98.7 186.4;" xml:space="preserve">
<style type="text/css">
	.st0{fill:#22B573;}
	.st1{clip-path:url(#SVGID_2_);fill:#147C4A;}
	.st2{fill:#E5A383;}
	.st3{fill:#B56D57;}
	.st4{fill:#FCBD9A;}
	.st5{fill:#CE8163;}
	.st6{fill:#147C4A;}
</style>
<g>
	<g>
		<g>
			<g>
				<g>
					<path id="XMLID_45_" class="st0" d="M80.7,168.3c0,9.4-7.6,17-17,17h-24c-9.4,0-17-7.6-17-17l4-52c0-9.4,7.6-17,17-17h16
						c9.4,0,17,7.6,17,17L80.7,168.3z"/>
				</g>
				<g>
					<g>
						<g>
							<defs>
								<path id="SVGID_1_" d="M80.7,168.3c0,9.4-7.6,17-17,17h-24c-9.4,0-17-7.6-17-17l4-52c0-9.4,7.6-17,17-17h16
									c9.4,0,17,7.6,17,17L80.7,168.3z"/>
							</defs>
							<clipPath id="SVGID_2_">
								<use xlink:href="#SVGID_1_"  style="overflow:visible;"/>
							</clipPath>
							<ellipse class="st1" cx="51.7" cy="108.3" rx="22" ry="8"/>
						</g>
					</g>
				</g>
			</g>
			<g>
				<g>
					<g>
						<path id="XMLID_44_" class="st2" d="M24.4,29.8c0,0,0-8.8,0-9.6s0.9-2.3,0.9-2.3L41.6,7.4c0,0,1.2-0.4,3.5-0.4
							s4.3,2.3,4.3,2.3l27.5,27.9L24.4,29.8z"/>
					</g>
				</g>
				<g>
					<path class="st3" d="M44.1,26.5c0,0,0,0.1,0,0.1c0,0.4-0.4,0.7-0.8,0.7c-0.4,0-0.7-0.4-0.7-0.8l0.6-7.5L44.1,26.5L44.1,26.5z"
						/>
				</g>
				<path class="st4" d="M54.3,111.5c-12.4,1.2-15.4-9.5-15.4-9.5l-8.1-18.9l-2.7-1.9l-6.5-23.5c0,0-4.8-4-5.8-5
					c-1.9-1.9-0.4-5-0.4-5s12-23.4,13.5-24.2c1.5-0.8,4.2-0.4,4.2-0.4s41,12.9,44,14.2c3.5,1.5,3.5,5.8,2.3,11.2
					c-0.7,3.1-10.1,53.1-10.1,53.1S70.1,110,54.3,111.5z"/>
				<g>
					<path class="st5" d="M59,40.5C59,40.5,59,40.5,59,40.5c0.4,0,0.7,0.4,0.7,0.9c0,0.4-0.4,0.8-0.8,0.8c0,0-14.4-0.2-28.8-0.4
						c-0.9,0-1.8,0-2.7,0c-0.8,0-1.7,0.3-2.4,0.7c-1.5,0.8-2.6,2.3-2.8,3.9c-0.2,0.8-0.1,1.6-0.1,2.4c0,0.8,0,1.6,0,2.4
						c0,1.5,0,3,0.1,4.4c0.1,5.4,0.1,9,0.1,9s-0.1-3.6-0.3-9c0-1.3-0.1-2.8-0.1-4.4c0-0.8-0.1-1.6-0.1-2.4c-0.1-0.8-0.1-1.6,0-2.5
						c0.3-1.7,1.4-3.4,3-4.3c0.8-0.4,1.8-0.7,2.7-0.8c0.9-0.1,1.8-0.1,2.7-0.1C44.6,40.8,59,40.5,59,40.5L59,40.5z"/>
				</g>
				<g>
					<path class="st4" d="M37.3,85.5h-9.4c-3.4,0-5.6-3.4-5.6-6.9V61.3c0-3.4,2.2-5.8,5.6-5.8h26.4"/>
					<path class="st5" d="M54.7,54.5c0,0,0,0-0.1-0.1c0.4,0,0.8,0.6,0.8,1c0,0.4-0.4,1-0.8,1c0,0-4.5,0-11.3-0.1
						c-3.4,0-7.3-0.1-11.6-0.1c-1.1,0-2.1,0-3.2,0c-0.3,0-0.6,0-0.8,0l-0.8,0.1c-0.3,0-0.5,0.1-0.8,0.1c-0.2,0.1-0.5,0.1-0.7,0.2
						c-1.9,0.7-3,2.9-2.9,5.1c0,4.5-0.1,9-0.1,13.3c0,1.1,0,2.1,0,3.1c0,1,0,2,0.3,2.9c0.5,1.8,1.8,3.3,3.3,4
						c0.8,0.3,1.6,0.4,2.3,0.4c0.8,0,1.5,0,2.2,0c1.4,0,2.6,0,3.6,0c2,0,3.1,0,3.1,0s-1.1,0-3.1,0c-1,0-2.2,0-3.6,0
						c-0.7,0-1.4,0-2.2,0c-0.8,0.1-1.6,0-2.4-0.3c-1.6-0.6-3-2.2-3.6-4.1c-0.3-0.9-0.4-2-0.4-3c0-1,0-2,0-3.1
						c0-4.2-0.1-8.8-0.1-13.3c0-0.6,0-1.2,0.1-1.8c0.2-0.6,0.3-1.2,0.6-1.7c0.6-1.1,1.5-2.1,2.6-2.5c0.3-0.2,0.6-0.2,0.9-0.3
						c0.3-0.1,0.6-0.2,0.9-0.2l0.8-0.1c0.4,0,0.6,0,0.9,0c1.1,0,2.1-0.1,3.2-0.1c4.3,0,8.2-0.2,11.6-0.2
						C50.2,54.8,54.7,54.5,54.7,54.5L54.7,54.5z"/>
				</g>
				<g>
					<path class="st5" d="M32.7,74.5c0,0,0,0-0.2,0c-0.4,0-0.8-0.3-0.7-0.7c0-0.4,0.4-0.7,0.8-0.7c0,0,1.9,0.1,4.9,0.1
						c0.7,0,1.5,0,2.4,0.2c0.9,0.2,1.8,0.6,2.6,1.2c0.8,0.6,1.4,1.5,1.8,2.4c0.4,0.9,0.5,2,0.4,3c-0.1,1.1-0.5,2-1.1,2.8
						c-0.6,0.8-1.4,1.4-2.3,1.8c-0.9,0.4-1.8,0.5-2.6,0.5c-0.8,0-1.6,0-2.4,0C33.4,85,31.4,85,31.4,85s2,0,4.9-0.1
						c0.8,0,1.6,0,2.4,0c0.9,0,1.7-0.2,2.5-0.6c0.8-0.4,1.5-1,2-1.8c0.5-0.7,0.8-1.6,0.9-2.5c0.1-0.9-0.1-1.8-0.5-2.6
						c-0.4-0.8-1-1.5-1.6-2c-0.7-0.5-1.4-0.8-2.2-0.9c-0.7-0.2-1.5-0.1-2.2-0.1C34.7,74.5,32.7,74.5,32.7,74.5L32.7,74.5z"/>
				</g>
				<g>
					<path class="st5" d="M34,40.5c0.1,0,0.2,0.1,0.2,0.2c0.3,0.3,0.2,0.8-0.2,1.1c-0.3,0.2-0.8,0.1-1.1-0.2l-2.9-4L34,40.5L34,40.5
						z"/>
				</g>
				<g>
					<path class="st5" d="M33,73.3c0,0,0.1,0.1,0.1,0.2c0.3,0.3,0.2,0.7-0.1,1c-0.3,0.2-0.7,0.2-1-0.1l-2.8-3.2L33,73.3L33,73.3z"/>
				</g>
				<g>
					<path class="st5" d="M41.1,74.8C41.1,74.8,41.1,74.9,41.1,74.8c-0.4,0.2-0.8,0-1-0.3c-0.1-0.4,0.1-0.8,0.4-0.9l8.4-3.2
						L41.1,74.8L41.1,74.8z"/>
				</g>
				<g>
					<path class="st5" d="M67.1,56.4c0,0-0.1,0-0.1,0.2c-0.4-0.1-0.8-0.5-0.6-0.9c0.1-0.4,0.5-0.7,0.9-0.6c0,0,0.2,0,0.6,0.1
						c0.2,0,0.4,0,0.8,0.1c0.3,0.1,0.7,0.2,1.1,0.4c0.4,0.2,0.7,0.4,1.1,0.6c0.4,0.3,0.7,0.6,1.1,0.9c0.3,0.4,0.6,0.8,0.9,1.2
						c0.2,0.5,0.5,0.9,0.6,1.4l0.2,0.7l0,0.7c0,0.5,0,0.9,0,1.4c0,0.9-0.1,1.7-0.1,2.4c-0.1,1.4-0.1,2.4-0.1,2.4s0-1-0.1-2.4
						c0-0.7-0.1-1.5-0.1-2.4c0-0.4,0-0.9-0.1-1.3l-0.1-0.7L72.5,60c-0.1-0.4-0.4-0.8-0.6-1.1c-0.2-0.4-0.6-0.6-0.8-0.9
						c-0.3-0.3-0.6-0.5-0.9-0.7c-0.3-0.1-0.6-0.3-0.9-0.4c-0.3-0.1-0.6-0.1-0.8-0.2c-0.2-0.1-0.5-0.1-0.7-0.1
						C67.3,56.5,67.1,56.4,67.1,56.4L67.1,56.4z"/>
				</g>
				<g>
					<path class="st5" d="M69.8,41.8c0,0-0.1,0-0.1,0.2c-0.4-0.1-0.7-0.4-0.6-0.9s0.5-0.7,0.9-0.7c0,0,0.2,0,0.6,0.1
						c0.2,0,0.4,0,0.8,0.1c0.3,0.1,0.7,0.2,1.1,0.4c0.4,0.2,0.7,0.4,1.1,0.6c0.4,0.3,0.7,0.6,1.1,0.9c0.3,0.4,0.6,0.8,0.9,1.2
						c0.2,0.5,0.5,0.9,0.6,1.4l0.2,0.7l0,0.7c0,0.5,0,0.9,0,1.4c0,0.9-0.1,1.7-0.1,2.4c-0.1,1.4-0.1,2.4-0.1,2.4s0-1-0.1-2.4
						c0-0.7-0.1-1.5-0.1-2.4c0-0.4,0-0.9-0.1-1.3l-0.1-0.7l-0.2-0.6c-0.1-0.4-0.4-0.8-0.6-1.2c-0.2-0.4-0.6-0.6-0.8-0.9
						c-0.3-0.3-0.6-0.5-0.9-0.7c-0.3-0.1-0.6-0.3-0.9-0.4c-0.3-0.1-0.6-0.1-0.8-0.2c-0.2-0.1-0.5-0.1-0.7-0.1
						C70,41.8,69.8,41.8,69.8,41.8L69.8,41.8z"/>
				</g>
				<g>
					<path class="st5" d="M44.1,78.7c-0.1,0-0.1,0-0.1-0.1c-0.3-0.2-0.5-0.6-0.3-0.9c0.2-0.3,0.6-0.5,0.9-0.3l9.8,4.5L44.1,78.7
						L44.1,78.7z"/>
				</g>
			</g>
			<g>
				<path class="st6" d="M26.3,127.4c0,0,0.2,0.1,0.5,0.3c0.3,0.2,0.8,0.5,1.3,0.8c0.6,0.3,1.3,0.8,2.2,1.2c0.4,0.2,0.9,0.4,1.4,0.7
					c0.5,0.2,1,0.4,1.6,0.7c1.1,0.5,2.3,0.9,3.6,1.3c1.3,0.4,2.7,0.8,4.2,1.1c0.7,0.2,1.5,0.4,2.2,0.5c0.8,0.1,1.5,0.2,2.3,0.4
					l1.2,0.2l1.2,0.1c0.8,0.1,1.6,0.1,2.4,0.2c1.6,0.1,3.2,0.1,4.8,0.1c1.6-0.1,3.1-0.2,4.6-0.3c1.5-0.2,2.9-0.4,4.3-0.6
					c0.7-0.1,1.3-0.2,2-0.4c0.6-0.1,1.3-0.3,1.8-0.4c1.2-0.3,2.3-0.5,3.2-0.8c0.9-0.3,1.8-0.5,2.4-0.7c1.4-0.4,2.1-0.6,2.1-0.6
					s-0.8,0.3-2.1,0.7c-0.7,0.2-1.5,0.5-2.4,0.8c-0.9,0.4-2,0.6-3.2,0.9c-0.6,0.2-1.2,0.3-1.8,0.5c-0.6,0.2-1.3,0.3-2,0.4
					c-1.4,0.2-2.8,0.5-4.3,0.7c-1.5,0.1-3.1,0.3-4.7,0.4c-1.6,0-3.2,0.1-4.9,0.1c-0.8,0-1.6-0.1-2.4-0.1l-1.2-0.1l-1.2-0.1
					c-0.8-0.1-1.6-0.2-2.4-0.3c-0.8-0.1-1.5-0.3-2.3-0.4c-1.5-0.2-2.9-0.7-4.3-1c-1.4-0.4-2.6-0.8-3.8-1.2c-0.6-0.2-1.1-0.4-1.7-0.6
					c-0.5-0.2-1-0.4-1.5-0.6c-0.9-0.4-1.7-0.8-2.4-1.1c-0.6-0.3-1.1-0.6-1.5-0.8c-0.3-0.2-0.5-0.3-0.5-0.3L26.3,127.4z"/>
			</g>
			<g>
				<polygon class="st6" points="29.2,131.2 31.7,116.3 30.2,131.4 				"/>
			</g>
			<g>
				<polygon class="st6" points="36.2,133.3 37.7,118.3 37.2,133.3 				"/>
			</g>
			<g>
				<polygon class="st6" points="45.7,135.3 46.2,120.3 46.7,135.3 				"/>
			</g>
			<g>
				<polygon class="st6" points="52.7,135.3 53.2,120.3 53.7,135.3 				"/>
			</g>
			<g>
				<polygon class="st6" points="45.2,134.3 44.7,120.3 46.2,134.3 				"/>
			</g>
			<g>
				<polygon class="st6" points="53.2,133.4 51.7,119.3 54.2,133.2 				"/>
			</g>
		</g>
		<g>
			<path class="st2" d="M28.2,24c0.4-0.3,0.9-0.6,1.3-0.9c-0.3,0.1-0.6,0.2-0.8,0.3C28.6,23.4,28.4,23.7,28.2,24L28.2,24z"/>
			<path class="st2" d="M53.2,105.5c-4.7,0-13-4-21-20c4,19,11,27.1,22,26c15.8-1.5,15-10,15-10s0-0.2,0.1-0.6
				C64.1,103.2,59.3,105.5,53.2,105.5L53.2,105.5z"/>
		</g>
	</g>
</g>
</svg>
